<svg width="16" height="16" viewBox="0 0 16 16" fill="none" xmlns="http://www.w3.org/2000/svg">
<path d="M15.3969 7.39687C15.0625 7.39687 14.7937 7.66563 14.7937 8C14.7937 11.7469 11.7469 14.7937 8 14.7937C4.25313 14.7937 1.20625 11.7469 1.20625 8C1.20625 4.25313 4.25313 1.20625 8 1.20625C8.33438 1.20625 8.60312 0.9375 8.60312 0.603125C8.60312 0.26875 8.33438 0 8 0C3.5875 0 0 3.5875 0 8C0 12.4125 3.5875 16 8 16C12.4125 16 16 12.4125 16 8C16 7.66563 15.7313 7.39687 15.3969 7.39687Z" fill="#3B4658"/>
<path d="M15.5442 2.18745C15.3099 1.95308 14.9255 1.94995 14.6911 2.18745L7.45675 9.39995L4.84737 6.56558C4.62237 6.32183 4.24112 6.3062 3.99425 6.5312C3.7505 6.7562 3.73487 7.13745 3.95987 7.38433L6.99425 10.6812C7.10675 10.8031 7.25987 10.8718 7.4255 10.875C7.42862 10.875 7.43487 10.875 7.438 10.875C7.59737 10.875 7.7505 10.8125 7.863 10.7L15.5411 3.04058C15.7786 2.8062 15.7786 2.42183 15.5442 2.18745Z" fill="#3B4658"/>
</svg>
