<svg width="16" height="16" viewBox="0 0 16 16" fill="none" xmlns="http://www.w3.org/2000/svg">
<path opacity="0.4" d="M15.3969 7.39687C15.0625 7.39687 14.7937 7.66563 14.7937 8C14.7937 11.7469 11.7469 14.7937 8 14.7937C4.25313 14.7937 1.20625 11.7469 1.20625 8C1.20625 4.25313 4.25313 1.20625 8 1.20625C8.33438 1.20625 8.60312 0.9375 8.60312 0.603125C8.60312 0.26875 8.33438 0 8 0C3.5875 0 0 3.5875 0 8C0 12.4125 3.5875 16 8 16C12.4125 16 16 12.4125 16 8C16 7.66563 15.7313 7.39687 15.3969 7.39687Z" fill="#17171A"/>
</svg>
