<svg width="26" height="24" viewBox="0 0 26 24" fill="none" xmlns="http://www.w3.org/2000/svg">
<path d="M6.67188 11.2969C6.67188 11.5632 6.82234 11.8067 7.06056 11.9258L12.6856 14.7383C12.7826 14.7873 12.8958 14.8124 12.9998 14.8125H13.0002C13.1047 14.8124 13.2123 14.7888 13.3144 14.7383L18.9394 11.9258C19.1777 11.8067 19.3281 11.5632 19.3281 11.2969V4.26564C19.3281 3.99953 19.1754 3.7532 18.9394 3.63671L13.3144 0.824215C13.1165 0.725262 12.8835 0.725262 12.6856 0.824215L7.06056 3.63671C6.82173 3.75615 6.67188 4.00192 6.67188 4.26564V11.2969ZM8.07812 5.40334L12.2969 7.51271V12.9717L8.07812 10.8624V5.40334ZM17.9219 10.8623L13.7031 12.9717V7.51271L17.9219 5.40334V10.8623ZM13 2.23928L17.0528 4.26564L13 6.292L8.94723 4.26564L13 2.23928Z" fill="#3B4658" stroke="#3B4658" stroke-width="0.2"/>
<path d="M21.7843 9.77688C21.4464 9.58549 21.0174 9.70423 20.8259 10.0421C20.6345 10.38 20.7533 10.809 21.0911 11.0005C22.7051 11.9148 23.5939 13.0189 23.5939 14.1094C23.5939 16.6024 19.536 18.1391 17.0794 18.6363C16.6988 18.7134 16.4527 19.0843 16.5297 19.465C16.6068 19.8458 16.9781 20.0917 17.3584 20.0146C20.6417 19.3501 25.0002 17.4538 25.0002 14.1094C25.0002 12.4903 23.8581 10.9517 21.7843 9.77688Z" fill="#3B4658" stroke="#3B4658" stroke-width="0.2"/>
<path d="M9.48438 20.1661V22.547C9.48438 22.8063 9.62711 23.0445 9.85572 23.1669C10.0838 23.2889 10.3612 23.2761 10.5775 23.132L14.7963 20.3195C14.9919 20.1891 15.1094 19.9695 15.1094 19.7345C15.1094 19.4994 14.9919 19.2798 14.7963 19.1494L10.5775 16.3369C10.3617 16.193 10.0843 16.1796 9.85572 16.302C9.62711 16.4244 9.48438 16.6626 9.48438 16.922V18.7411C6.8598 18.293 2.40625 16.7574 2.40625 14.1095C2.40625 13.019 3.29509 11.9149 4.90909 11.0006C5.24697 10.8092 5.3657 10.3801 5.17431 10.0422C4.98292 9.70433 4.55383 9.58564 4.21595 9.77699C2.14211 10.9518 1 12.4904 1 14.1095C1 17.7084 5.94564 19.6032 9.48438 20.1661ZM10.8906 18.2358L13.1387 19.7345L10.8906 21.2331V18.2358Z" fill="#3B4658" stroke="#3B4658" stroke-width="0.2"/>
</svg>
