<svg width="28" height="28" viewBox="0 0 28 28" fill="none" xmlns="http://www.w3.org/2000/svg">
<path d="M26.6206 26.2376H22.3906V20.3419C22.4719 20.3518 22.5537 20.357 22.6356 20.3574C23.2029 20.3564 23.7467 20.1306 24.1479 19.7294C24.549 19.3283 24.7747 18.7844 24.7757 18.2171V18.1966C25.134 18.148 25.4742 18.0094 25.7645 17.7937C26.0548 17.5781 26.2858 17.2925 26.4359 16.9634C26.586 16.6344 26.6503 16.2727 26.6228 15.9121C26.5953 15.5516 26.4769 15.2038 26.2787 14.9013C26.5242 14.685 26.7169 14.4152 26.8417 14.1127C26.9666 13.8102 27.0203 13.483 26.9988 13.1565C26.9774 12.83 26.8813 12.5127 26.7179 12.2291C26.5545 11.9456 26.3282 11.7033 26.0564 11.521C26.229 11.0321 26.2179 10.4973 26.0255 10.0159C25.833 9.53461 25.4722 9.13963 25.0102 8.90451C25.0314 8.78441 25.0421 8.66269 25.0421 8.54073C25.0413 8.04127 24.8659 7.5578 24.5463 7.17394C24.2268 6.79007 23.7831 6.52995 23.2921 6.43854C23.2731 5.88427 23.0396 5.35904 22.6409 4.97354C22.2422 4.58804 21.7094 4.37239 21.1548 4.37202C20.6002 4.37165 20.0671 4.5866 19.6679 4.97157C19.2686 5.35654 19.0345 5.88145 19.0147 6.4357C18.8915 6.45984 18.7707 6.49491 18.6537 6.54048C18.687 6.37646 18.7037 6.20953 18.7038 6.04217C18.7029 5.43498 18.4854 4.84805 18.0903 4.38691C17.6953 3.92578 17.1488 3.6207 16.5489 3.52654C16.5493 2.85066 16.2812 2.2023 15.8035 1.72411C15.3258 1.24592 14.6778 0.977062 14.0019 0.976685C13.326 0.976308 12.6777 1.24444 12.1995 1.7221C11.7213 2.19976 11.4524 2.84781 11.452 3.5237C10.8519 3.61826 10.3053 3.92378 9.91026 4.38534C9.51526 4.8469 9.29786 5.43423 9.29714 6.04173C9.29726 6.20931 9.31411 6.37647 9.34745 6.5407C9.23052 6.49525 9.10971 6.46047 8.98651 6.43679C8.96632 5.8831 8.73216 5.35881 8.3333 4.97423C7.93444 4.58965 7.40197 4.37476 6.8479 4.37476C6.29384 4.37476 5.76137 4.58965 5.36251 4.97423C4.96365 5.35881 4.72949 5.8831 4.70929 6.43679C4.21801 6.52859 3.77424 6.78916 3.4547 7.17345C3.13515 7.55774 2.95992 8.0416 2.9593 8.54139C2.95933 8.66335 2.97001 8.78507 2.99123 8.90517C2.52922 9.14012 2.16831 9.53493 1.97568 10.0161C1.78305 10.4973 1.77182 11.0321 1.94408 11.521C1.67232 11.7033 1.44604 11.9456 1.28266 12.2291C1.11928 12.5127 1.02315 12.83 1.00168 13.1565C0.980208 13.483 1.03397 13.8102 1.15882 14.1127C1.28367 14.4152 1.47629 14.685 1.72183 14.9013C1.52361 15.2038 1.40524 15.5516 1.37775 15.9121C1.35027 16.2727 1.41456 16.6344 1.56463 16.9634C1.71471 17.2925 1.94568 17.5781 2.23599 17.7937C2.5263 18.0094 2.86651 18.148 3.22486 18.1966V18.2171C3.22578 18.7844 3.45154 19.3283 3.85267 19.7294C4.25379 20.1306 4.79758 20.3564 5.36489 20.3574C5.44679 20.357 5.52859 20.3518 5.60989 20.3419V26.2376H1.37992C1.27839 26.2376 1.18102 26.2779 1.10923 26.3497C1.03744 26.4215 0.997107 26.5189 0.997107 26.6204C0.997107 26.7219 1.03744 26.8193 1.10923 26.8911C1.18102 26.9629 1.27839 27.0032 1.37992 27.0032H26.6206C26.7221 27.0032 26.8195 26.9629 26.8913 26.8911C26.9631 26.8193 27.0034 26.7219 27.0034 26.6204C27.0034 26.5189 26.9631 26.4215 26.8913 26.3497C26.8195 26.2779 26.7221 26.2376 26.6206 26.2376ZM19.7096 7.03311C19.7455 6.99117 19.7719 6.94198 19.787 6.88889C19.8021 6.83581 19.8056 6.78009 19.7971 6.72554C19.7854 6.6557 19.7793 6.58504 19.7788 6.51423C19.7788 6.14972 19.9236 5.80013 20.1813 5.54238C20.4391 5.28463 20.7887 5.13983 21.1532 5.13983C21.5177 5.13983 21.8673 5.28463 22.125 5.54238C22.3828 5.80013 22.5276 6.14972 22.5276 6.51423C22.527 6.58504 22.5209 6.6557 22.5092 6.72554C22.5022 6.78041 22.507 6.83614 22.5234 6.88898C22.5398 6.94181 22.5673 6.99051 22.6041 7.03179C22.6415 7.07383 22.6874 7.10746 22.7387 7.13047C22.79 7.15347 22.8456 7.16532 22.9019 7.16523C23.1224 7.16448 23.3399 7.21697 23.5358 7.31826C23.7317 7.41954 23.9003 7.56662 24.0272 7.747C24.1541 7.92738 24.2356 8.13574 24.2648 8.35435C24.2939 8.57297 24.2699 8.7954 24.1947 9.00273C24.1772 9.05144 24.1698 9.10319 24.1729 9.15484C24.176 9.2065 24.1895 9.25699 24.2126 9.30328C24.2358 9.34956 24.2681 9.39068 24.3075 9.42414C24.347 9.4576 24.3928 9.48272 24.4423 9.49798C24.6395 9.55834 24.8205 9.66237 24.9719 9.80234C25.1234 9.9423 25.2413 10.1146 25.317 10.3064C25.3926 10.4982 25.4241 10.7047 25.409 10.9103C25.3939 11.116 25.3327 11.3156 25.2298 11.4943C25.2029 11.541 25.1862 11.5929 25.1808 11.6465C25.1754 11.7001 25.1813 11.7543 25.1983 11.8054C25.2152 11.8566 25.2428 11.9036 25.2792 11.9433C25.3156 11.9831 25.3599 12.0147 25.4094 12.0361C25.6443 12.1377 25.8462 12.3029 25.9922 12.513C26.1383 12.7231 26.2227 12.9699 26.236 13.2255C26.2493 13.4811 26.1909 13.7353 26.0675 13.9594C25.9441 14.1836 25.7604 14.3688 25.5374 14.4942C25.4858 14.5233 25.4418 14.564 25.4086 14.613C25.3754 14.662 25.3541 14.718 25.3462 14.7767C25.3383 14.8353 25.3442 14.895 25.3633 14.951C25.3823 15.007 25.4142 15.0579 25.4562 15.0995C25.6497 15.2912 25.782 15.536 25.836 15.803C25.8901 16.0699 25.8636 16.347 25.7599 16.5988C25.6563 16.8507 25.48 17.0661 25.2537 17.2176C25.0273 17.3691 24.7611 17.4499 24.4887 17.4498C24.4513 17.4498 24.4145 17.4469 24.378 17.4439C24.3181 17.4391 24.258 17.4484 24.2024 17.4712C24.1468 17.4939 24.0974 17.5295 24.0581 17.5749C24.0188 17.6203 23.9908 17.6743 23.9762 17.7326C23.9617 17.7908 23.961 17.8517 23.9744 17.9102C23.9975 18.0107 24.0095 18.1134 24.01 18.2165C24.0104 18.5142 23.914 18.8039 23.7354 19.042C23.5568 19.2801 23.3056 19.4538 23.0198 19.5368C22.7339 19.6198 22.4288 19.6077 22.1504 19.5023C21.872 19.3969 21.6354 19.2039 21.4763 18.9524C21.4417 18.8981 21.3939 18.8534 21.3375 18.8224C21.281 18.7915 21.2177 18.7752 21.1533 18.7752C21.0889 18.7752 21.0255 18.7915 20.9691 18.8224C20.9126 18.8534 20.8649 18.8981 20.8303 18.9524C20.6832 19.1853 20.4693 19.3686 20.2164 19.4782C19.9636 19.5877 19.6836 19.6185 19.413 19.5666C19.1424 19.5146 18.8938 19.3823 18.6995 19.1869C18.5053 18.9915 18.3744 18.742 18.3241 18.4711C18.358 18.3046 18.3751 18.1351 18.3753 17.9651C18.3753 17.9306 18.3753 17.896 18.3729 17.861C18.8144 17.8152 19.2364 17.6549 19.597 17.3959C19.9576 17.1369 20.2442 16.7882 20.4286 16.3844C20.613 15.9805 20.6887 15.5355 20.6482 15.0934C20.6077 14.6513 20.4524 14.2274 20.1977 13.8638C20.5075 13.6074 20.7523 13.2813 20.9118 12.9122C21.0714 12.543 21.1412 12.1413 21.1156 11.7399C21.09 11.3386 20.9697 10.949 20.7645 10.6031C20.5593 10.2572 20.2751 9.96487 19.9352 9.74998C20.1011 9.31741 20.146 8.8478 20.065 8.39163C19.9841 7.93545 19.7804 7.50995 19.4758 7.16086C19.5661 7.14641 19.6487 7.1013 19.7096 7.03311ZM15.8266 20.5131C16.2354 20.5129 16.6381 20.4141 17.0007 20.2253C17.3633 20.0364 17.675 19.763 17.9095 19.4281C18.1064 19.7136 18.3695 19.9472 18.6762 20.1091C18.983 20.2709 19.3243 20.3561 19.6711 20.3574C19.753 20.357 19.8347 20.3518 19.9159 20.3419V26.2376H15.4359V20.4801C15.5651 20.5011 15.6957 20.5122 15.8266 20.5131ZM10.1503 6.94211C10.1734 6.89587 10.187 6.84542 10.1901 6.79379C10.1932 6.74217 10.1859 6.69045 10.1684 6.64176C10.0718 6.37437 10.0407 6.08771 10.0777 5.80582C10.1147 5.52392 10.2187 5.255 10.3811 5.0216C10.5434 4.78821 10.7594 4.59713 11.0108 4.46439C11.2622 4.33165 11.5418 4.26111 11.8261 4.2587C11.8873 4.26304 11.9486 4.25338 12.0055 4.23045C12.0623 4.20751 12.1132 4.17191 12.1542 4.12636C12.1901 4.08438 12.2165 4.03515 12.2316 3.98203C12.2467 3.92891 12.2502 3.87315 12.2417 3.81858C12.2267 3.72811 12.2188 3.63662 12.2181 3.54492C12.2181 3.07209 12.4059 2.61862 12.7403 2.28428C13.0746 1.94994 13.5281 1.76211 14.0009 1.76211C14.4738 1.76211 14.9272 1.94994 15.2616 2.28428C15.5959 2.61862 15.7837 3.07209 15.7837 3.54492C15.783 3.63662 15.7751 3.72811 15.7601 3.81858C15.7532 3.87373 15.7583 3.92971 15.7749 3.98274C15.7915 4.03577 15.8194 4.0846 15.8566 4.12592C15.8943 4.16801 15.9405 4.20166 15.9922 4.22465C16.0438 4.24765 16.0997 4.25947 16.1563 4.25936C16.4421 4.25865 16.724 4.32689 16.9778 4.45828C17.2317 4.58967 17.4502 4.78034 17.6147 5.01413C17.7792 5.24791 17.8849 5.51792 17.9229 5.80126C17.9609 6.0846 17.9299 6.37292 17.8328 6.64176C17.8154 6.69046 17.808 6.74218 17.8111 6.7938C17.8143 6.84542 17.8278 6.89588 17.8509 6.94213C17.8741 6.98838 17.9063 7.02947 17.9458 7.06292C17.9852 7.09638 18.031 7.12151 18.0804 7.13679C18.336 7.21525 18.5706 7.35029 18.7668 7.53187C18.963 7.71345 19.1158 7.9369 19.2138 8.18563C19.3118 8.43437 19.3525 8.70198 19.3329 8.96861C19.3132 9.23523 19.2338 9.494 19.1004 9.7257C19.0736 9.77245 19.0569 9.82435 19.0515 9.87798C19.0461 9.93162 19.0521 9.98579 19.0691 10.037C19.0861 10.0881 19.1136 10.1351 19.15 10.1749C19.1864 10.2147 19.2308 10.2463 19.2802 10.2678C19.5849 10.3994 19.8467 10.6135 20.0362 10.886C20.2256 11.1584 20.3352 11.4784 20.3526 11.8098C20.3699 12.1412 20.2943 12.4709 20.1344 12.7616C19.9744 13.0524 19.7364 13.2927 19.4471 13.4554C19.3956 13.4845 19.3516 13.5252 19.3184 13.5742C19.2852 13.6231 19.2639 13.6792 19.256 13.7378C19.2481 13.7964 19.2539 13.8561 19.273 13.9121C19.292 13.9681 19.3238 14.019 19.3658 14.0607C19.6167 14.3092 19.7882 14.6267 19.8583 14.9729C19.9285 15.3191 19.8942 15.6783 19.7597 16.0049C19.6253 16.3315 19.3969 16.6109 19.1034 16.8074C18.8099 17.0039 18.4647 17.1088 18.1115 17.1087C18.0627 17.1087 18.0152 17.105 17.9675 17.1013C17.9076 17.0965 17.8474 17.1059 17.7919 17.1287C17.7363 17.1515 17.6868 17.1871 17.6475 17.2325C17.6082 17.278 17.5802 17.332 17.5657 17.3903C17.5511 17.4486 17.5505 17.5095 17.5639 17.5681C17.6582 17.9777 17.6045 18.4074 17.4124 18.7811C17.2203 19.1549 16.9022 19.4487 16.5144 19.6105C16.1265 19.7724 15.6939 19.7917 15.2931 19.6653C14.8923 19.5388 14.5492 19.2747 14.3245 18.9195C14.2899 18.8652 14.2422 18.8204 14.1857 18.7893C14.1292 18.7583 14.0658 18.742 14.0014 18.742C13.9369 18.742 13.8735 18.7583 13.817 18.7893C13.7606 18.8204 13.7128 18.8652 13.6783 18.9195C13.4542 19.2759 13.111 19.5413 12.7098 19.6685C12.3085 19.7958 11.8752 19.7767 11.4867 19.6146C11.0982 19.4525 10.7797 19.158 10.5879 18.7833C10.396 18.4086 10.3432 17.978 10.4388 17.5681C10.4522 17.5095 10.4516 17.4486 10.437 17.3903C10.4225 17.332 10.3945 17.278 10.3552 17.2325C10.3159 17.1871 10.2664 17.1515 10.2109 17.1287C10.1553 17.1059 10.0951 17.0965 10.0352 17.1013C9.98751 17.105 9.94004 17.1087 9.89126 17.1087C9.53801 17.1089 9.19267 17.0041 8.89912 16.8076C8.60558 16.6111 8.37707 16.3317 8.24264 16.005C8.10821 15.6784 8.07392 15.3191 8.14413 14.9729C8.21434 14.6267 8.38588 14.3092 8.63695 14.0607C8.67885 14.0188 8.71048 13.9679 8.72935 13.9117C8.74823 13.8556 8.75384 13.7959 8.74574 13.7372C8.73764 13.6786 8.71606 13.6226 8.68268 13.5737C8.64931 13.5248 8.60505 13.4843 8.55339 13.4554C8.26412 13.2928 8.02603 13.0526 7.86596 12.7619C7.7059 12.4712 7.63022 12.1415 7.64746 11.8101C7.6647 11.4787 7.77417 11.1587 7.96353 10.8862C8.15289 10.6137 8.41462 10.3995 8.7192 10.2678C8.76866 10.2463 8.81303 10.2147 8.84941 10.1749C8.8858 10.1351 8.91338 10.0881 8.93035 10.037C8.94733 9.98579 8.95331 9.93162 8.94791 9.87798C8.94251 9.82435 8.92585 9.77245 8.89901 9.7257C8.76566 9.49393 8.68626 9.23508 8.6667 8.9684C8.64714 8.70172 8.68794 8.43406 8.78605 8.18531C8.88416 7.93657 9.03707 7.71313 9.23341 7.5316C9.42975 7.35008 9.66447 7.21513 9.92014 7.13679C9.96967 7.12159 10.0156 7.0965 10.0552 7.06304C10.0947 7.02958 10.1271 6.98843 10.1503 6.94211ZM8.32939 20.3574C8.6762 20.3561 9.01754 20.2709 9.32428 20.1091C9.63103 19.9472 9.89408 19.7136 10.091 19.4281C10.3613 19.8198 10.7373 20.1266 11.1752 20.3128C11.6132 20.4991 12.095 20.5571 12.5646 20.4801V26.2376H8.08461V20.3419C8.16583 20.3518 8.24756 20.357 8.32939 20.3574ZM3.99048 18.2171C3.99103 18.114 4.00299 18.0113 4.02614 17.9109C4.03948 17.8523 4.03885 17.7915 4.02431 17.7332C4.00976 17.6749 3.98171 17.6209 3.94241 17.5755C3.90312 17.5301 3.85369 17.4946 3.79812 17.4718C3.74255 17.4491 3.6824 17.4397 3.62255 17.4445C3.58601 17.4476 3.54926 17.4504 3.51186 17.4504C3.23939 17.4507 2.973 17.3699 2.74655 17.2183C2.5201 17.0668 2.34382 16.8514 2.24011 16.5994C2.1364 16.3474 2.10995 16.0703 2.16412 15.8033C2.21829 15.5363 2.35063 15.2914 2.54433 15.0997C2.58637 15.0581 2.61818 15.0073 2.63727 14.9512C2.65635 14.8952 2.66219 14.8356 2.65433 14.7769C2.64646 14.7182 2.62511 14.6622 2.59194 14.6132C2.55877 14.5642 2.5147 14.5236 2.46317 14.4945C2.24008 14.3691 2.05646 14.1838 1.93302 13.9596C1.80958 13.7355 1.75122 13.4813 1.76452 13.2257C1.77783 12.9701 1.86227 12.7234 2.00832 12.5132C2.15438 12.3031 2.35624 12.1379 2.59114 12.0364C2.64059 12.0149 2.68496 11.9833 2.72134 11.9436C2.75773 11.9038 2.7853 11.8568 2.80225 11.8056C2.81921 11.7545 2.82517 11.7003 2.81973 11.6467C2.8143 11.5931 2.7976 11.5412 2.77073 11.4945C2.66787 11.3158 2.60661 11.1162 2.59152 10.9105C2.57642 10.7049 2.60788 10.4985 2.68355 10.3066C2.75922 10.1148 2.87716 9.94252 3.02859 9.80255C3.18002 9.66259 3.36106 9.55856 3.55823 9.4982C3.60774 9.48301 3.65365 9.45794 3.69319 9.42451C3.73273 9.39107 3.76509 9.34997 3.78829 9.30368C3.8115 9.25738 3.82508 9.20687 3.82821 9.15518C3.83134 9.10349 3.82396 9.0517 3.80651 9.00295C3.73199 8.79711 3.70785 8.57641 3.73611 8.35932C3.76436 8.14223 3.8442 7.93507 3.96894 7.75516C4.09367 7.57525 4.25968 7.42783 4.45307 7.32524C4.64646 7.22264 4.86161 7.16785 5.08051 7.16545C5.14098 7.16924 5.20153 7.15928 5.2576 7.13632C5.31367 7.11336 5.36381 7.078 5.40426 7.03289C5.44015 6.99095 5.46654 6.94176 5.48164 6.88867C5.49675 6.83559 5.5002 6.77987 5.49176 6.72533C5.48007 6.65548 5.47393 6.58482 5.47339 6.51401C5.47339 6.1495 5.61819 5.79991 5.87594 5.54216C6.13369 5.28441 6.48328 5.13961 6.84779 5.13961C7.21231 5.13961 7.5619 5.28441 7.81965 5.54216C8.0774 5.79991 8.2222 6.1495 8.2222 6.51401C8.22166 6.58482 8.21552 6.65548 8.20383 6.72533C8.19682 6.78019 8.20166 6.83593 8.21804 6.88876C8.23442 6.94159 8.26195 6.99029 8.29876 7.03158C8.35853 7.09881 8.43965 7.14339 8.52845 7.15779C8.22309 7.5068 8.01872 7.93249 7.93735 8.38903C7.85598 8.84557 7.90069 9.31566 8.06667 9.74867C7.72673 9.96356 7.44253 10.2559 7.23735 10.6018C7.03217 10.9477 6.91185 11.3373 6.88624 11.7386C6.86063 12.14 6.93046 12.5417 7.09001 12.9108C7.24957 13.28 7.4943 13.6061 7.80417 13.8625C7.5491 14.2261 7.39347 14.65 7.35271 15.0922C7.31195 15.5345 7.38747 15.9797 7.57179 16.3837C7.7561 16.7878 8.04281 17.1367 8.40351 17.3958C8.7642 17.6549 9.18635 17.8153 9.62811 17.861C9.62658 17.896 9.6257 17.9306 9.6257 17.9651C9.62574 18.1349 9.64275 18.3043 9.67645 18.4707C9.62611 18.7416 9.49527 18.991 9.30101 19.1864C9.10675 19.3819 8.85809 19.5142 8.58749 19.5661C8.31689 19.6181 8.03691 19.5873 7.78408 19.4777C7.53126 19.3681 7.31734 19.1849 7.17023 18.9519C7.13562 18.8976 7.08788 18.8529 7.03143 18.822C6.97498 18.791 6.91163 18.7748 6.84725 18.7748C6.78286 18.7748 6.71952 18.791 6.66306 18.822C6.60661 18.8529 6.55887 18.8976 6.52426 18.9519C6.36509 19.2035 6.12849 19.3965 5.85011 19.5019C5.57173 19.6073 5.26663 19.6194 4.98078 19.5364C4.69492 19.4533 4.44377 19.2797 4.26516 19.0416C4.08656 18.8034 3.99016 18.5137 3.99048 18.216V18.2171ZM6.37486 26.2376V20.1032C6.54728 20.011 6.7062 19.8955 6.84714 19.76C6.98785 19.8956 7.14664 20.0111 7.31898 20.1032V26.2378L6.37486 26.2376ZM13.3296 26.2376V20.2344C13.5788 20.1078 13.8054 19.9408 14.0003 19.7403C14.1949 19.9407 14.4213 20.1077 14.6703 20.2344V26.2385L13.3296 26.2376ZM20.6809 26.2376V20.1032C20.8535 20.0111 21.0125 19.8956 21.1534 19.76C21.2941 19.8955 21.4528 20.0109 21.625 20.1032V26.2378L20.6809 26.2376Z" fill="#BAA64B"/>
<path d="M15.7608 7.25163C15.7298 7.3482 15.7384 7.45311 15.7847 7.54334C15.831 7.63357 15.9112 7.70174 16.0077 7.73288C16.0457 7.74523 16.0853 7.7515 16.1252 7.75147C16.2062 7.75141 16.2851 7.72567 16.3506 7.67796C16.4161 7.63025 16.4648 7.56301 16.4896 7.48591C16.5723 7.25772 16.5828 7.00961 16.5197 6.77525C16.4566 6.54089 16.3229 6.33162 16.1368 6.17582C16.0627 6.1064 15.964 6.06927 15.8625 6.07259C15.761 6.07592 15.665 6.11942 15.5956 6.19354C15.5262 6.26765 15.4891 6.36631 15.4924 6.4678C15.4957 6.56929 15.5392 6.66531 15.6133 6.73472C15.693 6.79132 15.751 6.87335 15.7778 6.9673C15.8046 7.06126 15.7986 7.16153 15.7608 7.25163Z" fill="#BAA64B"/>
<path d="M16.5025 15.6125H16.501C16.4507 15.6127 16.401 15.6229 16.3546 15.6423C16.3082 15.6617 16.2661 15.6901 16.2307 15.7258C16.1953 15.7614 16.1673 15.8038 16.1483 15.8503C16.1292 15.8968 16.1195 15.9466 16.1197 15.9969C16.1215 16.3808 16.0825 16.4226 15.8957 16.6229C15.8265 16.6972 15.7896 16.796 15.7932 16.8974C15.7968 16.9989 15.8406 17.0948 15.9148 17.164C15.9891 17.2332 16.0879 17.2701 16.1893 17.2665C16.2908 17.2629 16.3867 17.2192 16.4559 17.1449C16.7751 16.8025 16.888 16.5761 16.8853 15.9936C16.8849 15.8924 16.8443 15.7955 16.7726 15.7241C16.7008 15.6526 16.6037 15.6125 16.5025 15.6125Z" fill="#BAA64B"/>
<path d="M16.4974 8.54948C16.4405 8.63355 16.4194 8.73678 16.4386 8.83646C16.4577 8.93615 16.5158 9.02412 16.5998 9.08104C16.6053 9.08476 17.1454 9.46429 17.1998 10.0009C17.2176 10.2154 17.1897 10.4313 17.1181 10.6344C17.0465 10.8374 16.9327 11.0229 16.7842 11.1789C16.7139 11.2493 16.6738 11.3444 16.6723 11.4439C16.6709 11.5434 16.7083 11.6396 16.7765 11.7121C16.8448 11.7845 16.9385 11.8276 17.038 11.8321C17.1374 11.8366 17.2347 11.8022 17.3092 11.7362C17.5418 11.4987 17.7204 11.2139 17.8327 10.9011C17.9451 10.5882 17.9887 10.2549 17.9604 9.92367C17.8692 9.02679 17.0622 8.47029 17.0281 8.44711C16.9441 8.39048 16.8411 8.36946 16.7416 8.38865C16.6422 8.40783 16.5543 8.46567 16.4974 8.54948Z" fill="#BAA64B"/>
</svg>
