<svg width="28" height="28" viewBox="0 0 28 28" fill="none" xmlns="http://www.w3.org/2000/svg">
<path d="M14.0216 1.91382C9.11222 1.91382 5.11816 5.90787 5.11816 10.8172V25.795C5.11816 26.0446 5.28458 26.211 5.53421 26.211H22.5089C22.7586 26.211 22.925 26.0446 22.925 25.795V10.8172C22.925 5.90787 18.9309 1.91382 14.0216 1.91382ZM8.15531 5.2838L13.0231 10.4012H5.95026C6.07507 8.40416 6.90717 6.61516 8.15531 5.2838ZM13.6055 25.3789H5.95026V18.7221H13.6055V25.3789ZM13.6055 17.89H5.95026V11.2333H13.6055V17.89ZM13.6055 9.77712L8.77938 4.70134C10.1107 3.57801 11.7749 2.87073 13.6055 2.74591V9.77712ZM22.0513 10.4012H15.0201L19.8878 5.2838C21.1776 6.61516 21.9681 8.40416 22.0513 10.4012ZM14.4376 2.74591C16.2682 2.82912 17.974 3.5364 19.2638 4.70134L14.4376 9.77712V2.74591ZM22.0929 25.3789H14.4376V18.7221H22.0929V25.3789ZM22.0929 17.89H14.4376V11.2333H22.0929V17.89Z" fill="#BAA64B"/>
<path d="M21.5922 3.03715C19.6368 1.08172 16.9325 0 14.0202 0C8.15389 0 3.57737 4.24368 3.28613 9.90193V27.584C3.28613 27.8336 3.45255 28 3.70218 28H24.2965C24.5462 28 24.7126 27.8336 24.7126 27.584V9.90193C24.5878 7.36404 23.4644 4.86776 21.5922 3.03715ZM23.9221 27.2095H4.15983V9.94354C4.36786 4.74294 8.65315 0.832095 14.0202 0.832095C18.6383 0.832095 23.6309 4.24368 23.9221 9.94354V27.2095Z" fill="#BAA64B"/>
</svg>
