<svg width="28" height="28" viewBox="0 0 28 28" fill="none" xmlns="http://www.w3.org/2000/svg">
<path d="M2.46094 4.92188C3.8179 4.92188 4.92188 3.8179 4.92188 2.46094C4.92188 1.10398 3.8179 0 2.46094 0C1.10398 0 0 1.10398 0 2.46094C0 3.8179 1.10398 4.92188 2.46094 4.92188ZM2.46094 0.820312C3.36558 0.820312 4.10156 1.5563 4.10156 2.46094C4.10156 3.36558 3.36558 4.10156 2.46094 4.10156C1.5563 4.10156 0.820312 3.36558 0.820312 2.46094C0.820312 1.5563 1.5563 0.820312 2.46094 0.820312ZM14 17.2877C12.7051 17.2877 11.4876 17.792 10.5719 18.7077C10.2791 19.0005 10.0289 19.3244 9.82324 19.6716H4.81961C3.75167 19.6716 2.74739 19.2556 1.99183 18.5C1.23632 17.745 0.820312 16.7408 0.820312 15.6723C0.820312 14.8002 1.09605 13.9715 1.61771 13.2758C2.12248 12.6026 2.84069 12.0963 3.64 11.8501C4.04693 11.7246 4.32031 11.3504 4.32031 10.9145C4.32031 9.54166 4.80895 8.21012 5.69614 7.1651C5.84276 6.9924 5.82159 6.73356 5.64895 6.58695C5.47635 6.44038 5.21746 6.46149 5.07084 6.63414C4.05787 7.82731 3.5 9.34741 3.5 10.9189C3.5 10.9882 3.45909 11.0474 3.39839 11.0661C2.4348 11.3629 1.56937 11.9729 0.961406 12.7837C0.332445 13.6225 0 14.6214 0 15.6723C0 16.9601 0.50143 18.1703 1.41187 19.0801C2.3223 19.9905 3.53254 20.4919 4.81961 20.4919H9.43666C9.24963 21.0122 9.15201 21.5664 9.15201 22.1357C9.15201 23.4307 9.65628 24.6481 10.572 25.5638C11.5171 26.5089 12.7586 26.9815 14.0001 26.9815C15.2415 26.9815 16.483 26.5089 17.4281 25.5638C18.3438 24.6481 18.8481 23.4307 18.8481 22.1357C18.8481 20.8407 18.3438 19.6234 17.4281 18.7076C16.5124 17.792 15.2949 17.2877 14 17.2877ZM9.97227 22.1358C9.97227 21.0591 10.3952 20.0445 11.1519 19.2878C11.9127 18.527 12.9241 18.1081 14 18.1081C14.9379 18.1081 15.8267 18.4267 16.5434 19.0124L10.8766 24.6792C10.2909 23.9625 9.97227 23.0736 9.97227 22.1358ZM16.8481 24.9838C15.3755 26.4563 13.0372 26.5481 11.4567 25.2591L17.1234 19.5924C17.7091 20.309 18.0277 21.1978 18.0277 22.1357C18.0277 23.2116 17.6088 24.2231 16.8481 24.9838ZM20.833 17.7022C20.8301 17.4775 20.6471 17.2972 20.4229 17.2972C20.4212 17.2972 20.4194 17.2972 20.4177 17.2973C20.1356 17.3008 19.8377 17.3032 19.5783 17.3042C19.749 17.0744 19.976 16.7623 20.2718 16.3397C20.4781 16.0449 20.6128 15.7655 20.6724 15.509C20.8458 14.7616 20.2124 14.0724 19.4773 14.0724C18.895 14.0724 18.391 14.4866 18.2789 15.0574C18.2352 15.2797 18.38 15.4953 18.6023 15.539C18.8246 15.5825 19.0402 15.4378 19.0838 15.2155C19.1206 15.0285 19.286 14.8927 19.4773 14.8927C19.72 14.8927 19.9281 15.1118 19.8688 15.3417C19.8306 15.4901 19.7379 15.6721 19.5997 15.8694C19.0982 16.586 18.7989 16.9778 18.6382 17.1883C18.435 17.4543 18.333 17.5878 18.402 17.812C18.4429 17.9449 18.5433 18.0468 18.6776 18.0916C18.7313 18.1094 18.7797 18.1256 19.4075 18.1256C19.65 18.1256 19.9789 18.1232 20.428 18.1175C20.6545 18.1146 20.8358 17.9287 20.833 17.7022ZM25.5391 23.0781C24.1821 23.0781 23.0781 24.1821 23.0781 25.5391C23.0781 26.896 24.1821 28 25.5391 28C26.896 28 28 26.896 28 25.5391C28 24.1821 26.896 23.0781 25.5391 23.0781ZM25.5391 27.1797C24.6344 27.1797 23.8984 26.4437 23.8984 25.5391C23.8984 24.6344 24.6344 23.8984 25.5391 23.8984C26.4437 23.8984 27.1797 24.6344 27.1797 25.5391C27.1797 26.4437 26.4437 27.1797 25.5391 27.1797ZM28 15.6723C28 14.3846 27.4986 13.1744 26.5881 12.2646C25.6777 11.3542 24.4675 10.8528 23.1804 10.8528C23.0795 10.8528 22.9398 10.8671 22.8999 10.7498C22.1071 8.41761 19.9187 6.8507 17.4541 6.8507C16.845 6.8507 16.2449 6.94559 15.6703 7.13289C15.611 7.15241 15.545 7.12862 15.5063 7.07459C14.2655 5.33553 12.2508 4.29734 10.1172 4.29734C8.87015 4.29734 7.65516 4.64625 6.60368 5.30627C6.41184 5.4267 6.35392 5.6799 6.47434 5.87174C6.59471 6.06359 6.84791 6.12139 7.03976 6.00108C7.96048 5.42314 9.02459 5.11766 10.1172 5.11766C11.9863 5.11766 13.7513 6.02733 14.8389 7.55147C15.0872 7.89852 15.5235 8.04366 15.9247 7.91273C16.4169 7.75228 16.9314 7.67096 17.4541 7.67096C19.5672 7.67096 21.4436 9.0143 22.1235 11.0146C22.2653 11.4315 22.7217 11.673 23.1804 11.673C24.2483 11.673 25.2526 12.0891 26.0082 12.8447C26.7636 13.5997 27.1797 14.6039 27.1797 15.6723C27.1797 17.8776 25.3856 19.6716 23.1804 19.6716H20.2474C20.0209 19.6716 19.8373 19.8552 19.8373 20.0818C19.8373 20.3084 20.0209 20.492 20.2474 20.492H23.1804C25.8379 20.492 28 18.3299 28 15.6723ZM9.85857 11.7498C10.2336 11.7498 10.5953 11.8602 10.9045 12.0691C11.0923 12.1959 11.3472 12.1466 11.474 11.9588C11.6008 11.7712 11.5514 11.5162 11.3637 11.3894C10.9184 11.0885 10.3978 10.9295 9.85852 10.9295C8.37435 10.9295 7.16691 12.137 7.16691 13.6211C7.16691 15.1053 8.37435 16.3127 9.85852 16.3127C10.5631 16.3127 11.1787 16.0365 11.61 15.5221C11.7556 15.3485 11.7329 15.0898 11.5594 14.9443C11.3858 14.7987 11.1271 14.8214 10.9815 14.995C10.7043 15.3256 10.3236 15.4925 9.85852 15.4925C8.82667 15.4925 7.98722 14.653 7.98722 13.6212C7.98722 12.5893 8.82678 11.7498 9.85857 11.7498ZM17.645 13.6211C17.645 12.1369 16.4376 10.9295 14.9534 10.9295C13.4693 10.9295 12.2618 12.1369 12.2618 13.6211C12.2618 15.1052 13.4693 16.3127 14.9534 16.3127C16.4376 16.3127 17.645 15.1052 17.645 13.6211ZM13.0822 13.6211C13.0822 12.5892 13.9216 11.7498 14.9535 11.7498C15.9853 11.7498 16.8248 12.5892 16.8248 13.6211C16.8248 14.6529 15.9853 15.4924 14.9535 15.4924C13.9216 15.4924 13.0822 14.6529 13.0822 13.6211Z" fill="#BAA64B"/>
</svg>
