<svg width="42" height="44" viewBox="0 0 42 44" fill="none" xmlns="http://www.w3.org/2000/svg">
<path opacity="0.4" d="M29.4827 5.17401C36.2812 8.36271 40.9923 15.2658 41 23.2721C41.0105 34.3178 32.0647 43.2806 21.019 43.2912C9.97341 43.3017 1.01051 34.3559 1.00001 23.3103C0.992309 15.3039 5.69031 8.39191 12.4827 5.19021" stroke="#3B4658"/>
<path opacity="0.4" d="M20.9629 25.2888C22.0675 25.2888 22.9629 24.3934 22.9629 23.2888C22.9629 22.1842 22.0675 21.2888 20.9629 21.2888C19.8583 21.2888 18.9629 22.1842 18.9629 23.2888C18.9629 24.3934 19.8583 25.2888 20.9629 25.2888Z" fill="#3B4658"/>
<path d="M20.1679 0.415313C20.5665 -0.138187 21.39 -0.138887 21.7896 0.413713L24.168 3.70271C24.6459 4.36361 24.1742 5.28791 23.3586 5.28861L18.6082 5.29321C17.7926 5.29391 17.3191 4.37061 17.7958 3.70871L20.1679 0.415313Z" fill="#BAA64B"/>
</svg>
