<svg width="54" height="54" viewBox="0 0 54 54" fill="none" xmlns="http://www.w3.org/2000/svg">
<path d="M52.2407 51.4752H43.7808V39.6837C43.9434 39.7035 44.107 39.7139 44.2708 39.7148C45.4054 39.7128 46.493 39.2612 47.2952 38.4588C48.0975 37.6565 48.549 36.5689 48.5509 35.4343V35.3932C49.2676 35.2959 49.948 35.0187 50.5286 34.5875C51.1092 34.1562 51.5711 33.5849 51.8713 32.9269C52.1714 32.2688 52.3 31.5455 52.2451 30.8243C52.1901 30.1031 51.9533 29.4076 51.5569 28.8027C52.048 28.37 52.4332 27.8303 52.6829 27.2253C52.9326 26.6203 53.0401 25.9661 52.9972 25.313C52.9543 24.6599 52.762 24.0254 52.4352 23.4583C52.1085 22.8912 51.6559 22.4066 51.1124 22.042C51.4574 21.0643 51.4354 19.9945 51.0505 19.0319C50.6655 18.0692 49.9439 17.2793 49.0199 16.809C49.0623 16.5688 49.0837 16.3254 49.0837 16.0815C49.082 15.0825 48.7313 14.1156 48.0922 13.3479C47.4531 12.5801 46.5658 12.0599 45.5837 11.8771C45.5456 10.7685 45.0787 9.71809 44.2812 8.94709C43.4838 8.17609 42.4182 7.74477 41.309 7.74403C40.1998 7.7433 39.1337 8.1732 38.3352 8.94313C37.5368 9.71307 37.0684 10.7629 37.0289 11.8714C36.7825 11.9197 36.5409 11.9898 36.307 12.081C36.3734 11.7529 36.407 11.4191 36.4072 11.0843C36.4053 9.86996 35.9702 8.69609 35.1802 7.77383C34.3902 6.85156 33.297 6.24141 32.0974 6.05309C32.0981 4.70131 31.5618 3.4046 30.6065 2.44822C29.6512 1.49184 28.3551 0.954124 27.0033 0.95337C25.6515 0.952616 24.3548 1.48888 23.3985 2.4442C22.4421 3.39952 21.9044 4.69563 21.9036 6.0474C20.7034 6.23652 19.61 6.84756 18.82 7.77068C18.03 8.69381 17.5952 9.86845 17.5938 11.0835C17.594 11.4186 17.6277 11.7529 17.6944 12.0814C17.4605 11.9905 17.2189 11.9209 16.9725 11.8736C16.9322 10.7662 16.4638 9.71762 15.6661 8.94846C14.8684 8.17931 13.8035 7.74952 12.6953 7.74952C11.5872 7.74952 10.5222 8.17931 9.72452 8.94846C8.9268 9.71762 8.45849 10.7662 8.4181 11.8736C7.43553 12.0572 6.54799 12.5783 5.9089 13.3469C5.26982 14.1155 4.91935 15.0832 4.9181 16.0828C4.91816 16.3267 4.93953 16.5701 4.98198 16.8103C4.05795 17.2802 3.33614 18.0699 2.95088 19.0323C2.56561 19.9947 2.54315 21.0642 2.88766 22.042C2.34416 22.4066 1.8916 22.8912 1.56483 23.4583C1.23806 24.0254 1.04581 24.6599 1.00287 25.313C0.959928 25.9661 1.06745 26.6203 1.31715 27.2253C1.56686 27.8303 1.95208 28.37 2.44316 28.8027C2.04674 29.4076 1.80999 30.1031 1.75502 30.8243C1.70004 31.5455 1.82863 32.2688 2.12878 32.9269C2.42893 33.5849 2.89086 34.1562 3.47149 34.5875C4.05212 35.0187 4.73252 35.2959 5.44923 35.3932V35.4343C5.45108 36.5689 5.90259 37.6565 6.70485 38.4588C7.5071 39.2612 8.59467 39.7128 9.72929 39.7148C9.89309 39.7139 10.0567 39.7035 10.2193 39.6837V51.4752H1.75935C1.5563 51.4752 1.36156 51.5559 1.21797 51.6995C1.07439 51.843 0.993727 52.0378 0.993727 52.2408C0.993727 52.4439 1.07439 52.6386 1.21797 52.7822C1.36156 52.9258 1.5563 53.0065 1.75935 53.0065H52.2407C52.4438 53.0065 52.6385 52.9258 52.7821 52.7822C52.9257 52.6386 53.0064 52.4439 53.0064 52.2408C53.0064 52.0378 52.9257 51.843 52.7821 51.6995C52.6385 51.5559 52.4438 51.4752 52.2407 51.4752ZM38.4188 13.0662C38.4906 12.9823 38.5433 12.884 38.5735 12.7778C38.6038 12.6716 38.6107 12.5602 38.5938 12.4511C38.5704 12.3114 38.5581 12.1701 38.557 12.0285C38.557 11.2994 38.8466 10.6003 39.3621 10.0848C39.8777 9.56926 40.5768 9.27965 41.3059 9.27965C42.0349 9.27965 42.7341 9.56926 43.2496 10.0848C43.7651 10.6003 44.0547 11.2994 44.0547 12.0285C44.0536 12.1701 44.0413 12.3114 44.0179 12.4511C44.0039 12.5608 44.0136 12.6723 44.0463 12.778C44.0791 12.8836 44.1342 12.981 44.2078 13.0636C44.2825 13.1477 44.3742 13.2149 44.4769 13.2609C44.5795 13.3069 44.6907 13.3306 44.8032 13.3305C45.2443 13.329 45.6793 13.4339 46.0711 13.6365C46.463 13.8391 46.8001 14.1332 47.0539 14.494C47.3078 14.8548 47.4708 15.2715 47.5291 15.7087C47.5874 16.1459 47.5393 16.5908 47.3889 17.0055C47.3539 17.1029 47.3391 17.2064 47.3453 17.3097C47.3515 17.413 47.3785 17.514 47.4248 17.6066C47.4711 17.6991 47.5356 17.7814 47.6146 17.8483C47.6935 17.9152 47.7852 17.9654 47.8841 17.996C48.2785 18.1167 48.6405 18.3247 48.9434 18.6047C49.2463 18.8846 49.4821 19.2292 49.6335 19.6128C49.7848 19.9965 49.8477 20.4093 49.8175 20.8206C49.7873 21.2319 49.6648 21.6311 49.4591 21.9886C49.4054 22.082 49.372 22.1858 49.3611 22.293C49.3502 22.4002 49.3621 22.5085 49.3961 22.6109C49.43 22.7132 49.4851 22.8072 49.5579 22.8867C49.6306 22.9662 49.7194 23.0294 49.8183 23.0723C50.2881 23.2754 50.6918 23.6057 50.9839 24.026C51.276 24.4463 51.4449 24.9398 51.4715 25.451C51.4981 25.9621 51.3814 26.4705 51.1345 26.9189C50.8876 27.3672 50.5204 27.7377 50.0742 27.9885C49.9712 28.0467 49.883 28.128 49.8167 28.226C49.7503 28.324 49.7076 28.4361 49.6919 28.5534C49.6762 28.6707 49.6879 28.79 49.726 28.9021C49.7642 29.0141 49.8278 29.1157 49.9119 29.199C50.299 29.5823 50.5634 30.0721 50.6716 30.606C50.7797 31.1399 50.7268 31.6939 50.5194 32.1977C50.312 32.7014 49.9596 33.1322 49.5069 33.4352C49.0542 33.7382 48.5216 33.8998 47.9769 33.8995C47.902 33.8995 47.8285 33.8938 47.7555 33.8877C47.6358 33.8781 47.5155 33.8968 47.4043 33.9424C47.2932 33.9879 47.1943 34.0589 47.1157 34.1497C47.0372 34.2405 46.981 34.3486 46.952 34.4651C46.9229 34.5816 46.9216 34.7034 46.9483 34.8205C46.9946 35.0214 47.0185 35.2268 47.0196 35.433C47.0203 36.0283 46.8275 36.6077 46.4702 37.084C46.113 37.5603 45.6107 37.9076 45.039 38.0736C44.4673 38.2397 43.8571 38.2154 43.3003 38.0046C42.7436 37.7938 42.2704 37.4078 41.952 36.9047C41.8828 36.7961 41.7873 36.7067 41.6744 36.6448C41.5615 36.5829 41.4348 36.5504 41.3061 36.5504C41.1773 36.5504 41.0506 36.5829 40.9377 36.6448C40.8248 36.7067 40.7293 36.7961 40.6601 36.9047C40.3659 37.3707 39.938 37.7372 39.4324 37.9563C38.9268 38.1755 38.3668 38.2371 37.8256 38.1332C37.2844 38.0292 36.7871 37.7646 36.3986 37.3737C36.01 36.9829 35.7484 36.484 35.6477 35.9422C35.7154 35.6092 35.7497 35.2702 35.75 34.9303C35.75 34.8611 35.75 34.792 35.7452 34.722C36.6284 34.6305 37.4724 34.3099 38.1935 33.7919C38.9147 33.2739 39.488 32.5765 39.8568 31.7687C40.2255 30.961 40.3769 30.071 40.2958 29.1868C40.2148 28.3026 39.9042 27.4549 39.3949 26.7276C40.0146 26.2149 40.5041 25.5626 40.8232 24.8243C41.1423 24.086 41.2819 23.2826 41.2307 22.4799C41.1795 21.6772 40.9388 20.898 40.5285 20.2063C40.1181 19.5145 39.5497 18.9297 38.8699 18.5C39.2017 17.6348 39.2914 16.6956 39.1296 15.7833C38.9677 14.8709 38.5603 14.0199 37.9511 13.3217C38.1317 13.2928 38.2969 13.2026 38.4188 13.0662ZM30.6527 40.0263C31.4703 40.0257 32.2758 39.8282 33.0009 39.4505C33.7261 39.0728 34.3495 38.526 34.8186 37.8563C35.2124 38.4273 35.7385 38.8945 36.352 39.2181C36.9655 39.5417 37.6482 39.7121 38.3418 39.7148C38.5054 39.7139 38.6689 39.7035 38.8314 39.6837V51.4752H29.8714V39.9602C30.1297 40.0023 30.391 40.0244 30.6527 40.0263ZM19.3 12.8842C19.3464 12.7917 19.3735 12.6908 19.3797 12.5876C19.386 12.4843 19.3712 12.3809 19.3364 12.2835C19.1431 11.7487 19.0809 11.1754 19.1549 10.6116C19.2289 10.0478 19.437 9.51001 19.7617 9.04321C20.0864 8.57641 20.5183 8.19426 21.0211 7.92878C21.524 7.6633 22.0831 7.52223 22.6517 7.5174C22.774 7.52609 22.8967 7.50676 23.0104 7.46089C23.1242 7.41503 23.2259 7.34383 23.308 7.25271C23.3798 7.16876 23.4325 7.0703 23.4627 6.96406C23.493 6.85782 23.4999 6.7463 23.483 6.63715C23.4529 6.45623 23.4371 6.27323 23.4357 6.08984C23.4357 5.14418 23.8114 4.23725 24.4801 3.56856C25.1488 2.89988 26.0557 2.52421 27.0014 2.52421C27.947 2.52421 28.8539 2.89988 29.5226 3.56856C30.1913 4.23725 30.567 5.14418 30.567 6.08984C30.5656 6.27323 30.5498 6.45623 30.5197 6.63715C30.5059 6.74745 30.516 6.85943 30.5493 6.96549C30.5826 7.07154 30.6383 7.1692 30.7127 7.25184C30.7881 7.33602 30.8806 7.40331 30.9838 7.4493C31.0871 7.49529 31.199 7.51895 31.312 7.51871C31.8838 7.5173 32.4474 7.65377 32.9552 7.91656C33.463 8.17934 33.8999 8.56068 34.2289 9.02825C34.558 9.49583 34.7694 10.0358 34.8453 10.6025C34.9212 11.1692 34.8594 11.7458 34.665 12.2835C34.6302 12.3809 34.6155 12.4844 34.6218 12.5876C34.628 12.6908 34.6551 12.7918 34.7014 12.8843C34.7476 12.9768 34.8121 13.0589 34.891 13.1258C34.9699 13.1928 35.0615 13.243 35.1603 13.2736C35.6714 13.4305 36.1406 13.7006 36.5331 14.0637C36.9255 14.4269 37.2311 14.8738 37.4271 15.3713C37.6231 15.8687 37.7045 16.404 37.6652 16.9372C37.626 17.4705 37.4671 17.988 37.2004 18.4514C37.1467 18.5449 37.1134 18.6487 37.1026 18.756C37.0918 18.8632 37.1037 18.9716 37.1377 19.0739C37.1716 19.1762 37.2268 19.2702 37.2995 19.3498C37.3723 19.4293 37.4611 19.4926 37.56 19.5355C38.1693 19.7988 38.6929 20.227 39.0718 20.7719C39.4508 21.3168 39.6699 21.9568 39.7046 22.6196C39.7393 23.2824 39.5882 23.9417 39.2682 24.5233C38.9483 25.1048 38.4722 25.5853 37.8938 25.9108C37.7908 25.969 37.7027 26.0503 37.6363 26.1483C37.57 26.2463 37.5273 26.3583 37.5115 26.4756C37.4957 26.5929 37.5074 26.7122 37.5454 26.8242C37.5835 26.9363 37.6471 27.038 37.731 27.1213C38.233 27.6184 38.5759 28.2535 38.7162 28.9458C38.8564 29.6381 38.7878 30.3566 38.519 31.0098C38.2502 31.6631 37.7933 32.2217 37.2063 32.6148C36.6194 33.0079 35.9288 33.2176 35.2224 33.2175C35.1249 33.2175 35.0299 33.21 34.9345 33.2026C34.8148 33.1931 34.6944 33.2118 34.5832 33.2574C34.4721 33.303 34.3732 33.3742 34.2946 33.4651C34.216 33.556 34.1599 33.6641 34.1309 33.7807C34.1018 33.8973 34.1006 34.0191 34.1273 34.1362C34.3159 34.9553 34.2085 35.8147 33.8244 36.5623C33.4402 37.3099 32.8039 37.8975 32.0282 38.2211C31.2525 38.5447 30.3873 38.5835 29.5857 38.3306C28.7842 38.0776 28.0979 37.5493 27.6484 36.8391C27.5793 36.7303 27.4838 36.6407 27.3709 36.5787C27.2579 36.5166 27.1311 36.4841 27.0022 36.4841C26.8733 36.4841 26.7465 36.5166 26.6336 36.5787C26.5206 36.6407 26.4252 36.7303 26.356 36.8391C25.9079 37.5518 25.2216 38.0825 24.4191 38.337C23.6166 38.5915 22.7499 38.5533 21.9729 38.2292C21.1959 37.905 20.559 37.3159 20.1753 36.5666C19.7915 35.8172 19.6859 34.9561 19.8771 34.1362C19.9038 34.0191 19.9026 33.8973 19.8736 33.7807C19.8445 33.6641 19.7884 33.556 19.7099 33.4651C19.6313 33.3742 19.5324 33.303 19.4212 33.2574C19.31 33.2118 19.1897 33.1931 19.0699 33.2026C18.9745 33.21 18.8796 33.2175 18.782 33.2175C18.0755 33.2178 17.3849 33.0082 16.7978 32.6152C16.2107 32.2221 15.7537 31.6634 15.4848 31.0101C15.2159 30.3567 15.1474 29.6382 15.2878 28.9458C15.4282 28.2534 15.7713 27.6183 16.2734 27.1213C16.3572 27.0377 16.4205 26.9357 16.4582 26.8235C16.496 26.7112 16.5072 26.5918 16.491 26.4745C16.4748 26.3572 16.4316 26.2452 16.3649 26.1474C16.2981 26.0496 16.2096 25.9686 16.1063 25.9108C15.5278 25.5855 15.0516 25.1051 14.7314 24.5237C14.4113 23.9423 14.2599 23.2831 14.2944 22.6203C14.3289 21.9575 14.5478 21.3175 14.9266 20.7724C15.3053 20.2274 15.8288 19.799 16.4379 19.5355C16.5368 19.4926 16.6256 19.4293 16.6983 19.3498C16.7711 19.2702 16.8263 19.1762 16.8602 19.0739C16.8942 18.9716 16.9061 18.8632 16.8953 18.756C16.8845 18.6487 16.8512 18.5449 16.7975 18.4514C16.5308 17.9879 16.372 17.4702 16.3329 16.9368C16.2938 16.4034 16.3754 15.8681 16.5716 15.3706C16.7678 14.8731 17.0736 14.4263 17.4663 14.0632C17.859 13.7002 18.3285 13.4303 18.8398 13.2736C18.9389 13.2432 19.0307 13.193 19.1098 13.1261C19.1889 13.0592 19.2536 12.9769 19.3 12.8842ZM15.6583 39.7148C16.3519 39.7121 17.0346 39.5417 17.6481 39.2181C18.2616 38.8945 18.7877 38.4273 19.1815 37.8563C19.7221 38.6396 20.4741 39.2532 21.35 39.6257C22.2258 39.9982 23.1895 40.1142 24.1287 39.9602V51.4752H15.1687V39.6837C15.3312 39.7035 15.4946 39.7139 15.6583 39.7148ZM6.98048 35.4343C6.98157 35.2281 7.00549 35.0227 7.05179 34.8218C7.07847 34.7047 7.07722 34.5829 7.04813 34.4664C7.01904 34.3499 6.96293 34.2419 6.88434 34.151C6.80575 34.0602 6.70688 33.9892 6.59575 33.9437C6.48461 33.8982 6.36432 33.8794 6.2446 33.889C6.17154 33.8952 6.09804 33.9008 6.02323 33.9008C5.47828 33.9013 4.9455 33.7397 4.4926 33.4367C4.03971 33.1336 3.68715 32.7027 3.47973 32.1988C3.27232 31.6949 3.21942 31.1407 3.32775 30.6066C3.43609 30.0725 3.70078 29.5827 4.08816 29.1995C4.17225 29.1162 4.23587 29.0145 4.27404 28.9025C4.31222 28.7905 4.3239 28.6711 4.30817 28.5538C4.29244 28.4365 4.24973 28.3244 4.1834 28.2264C4.11706 28.1284 4.0289 28.0471 3.92585 27.9889C3.47968 27.7381 3.11244 27.3676 2.86555 26.9193C2.61867 26.4709 2.50195 25.9625 2.52856 25.4514C2.55517 24.9403 2.72405 24.4467 3.01616 24.0264C3.30827 23.6061 3.71198 23.2758 4.18179 23.0727C4.2807 23.0299 4.36944 22.9666 4.4422 22.8871C4.51496 22.8076 4.57011 22.7136 4.60402 22.6113C4.63793 22.509 4.64984 22.4007 4.63898 22.2934C4.62811 22.1862 4.59472 22.0825 4.54098 21.989C4.33525 21.6316 4.21273 21.2324 4.18255 20.8211C4.15236 20.4098 4.21528 19.9969 4.36662 19.6133C4.51795 19.2296 4.75383 18.885 5.05669 18.6051C5.35956 18.3252 5.72162 18.1171 6.11598 17.9964C6.21499 17.966 6.30681 17.9159 6.3859 17.849C6.46498 17.7821 6.52969 17.6999 6.5761 17.6074C6.62251 17.5148 6.64967 17.4137 6.65594 17.3104C6.6622 17.207 6.64744 17.1034 6.61254 17.0059C6.46349 16.5942 6.41521 16.1528 6.47172 15.7186C6.52824 15.2845 6.68791 14.8701 6.93738 14.5103C7.18686 14.1505 7.51887 13.8557 7.90565 13.6505C8.29243 13.4453 8.72273 13.3357 9.16054 13.3309C9.28148 13.3385 9.40257 13.3186 9.51471 13.2726C9.62685 13.2267 9.72714 13.156 9.80804 13.0658C9.8798 12.9819 9.9326 12.8835 9.9628 12.7773C9.993 12.6712 9.99991 12.5597 9.98304 12.4507C9.95966 12.311 9.94737 12.1697 9.94629 12.028C9.94629 11.299 10.2359 10.5998 10.7514 10.0843C11.2669 9.56882 11.9661 9.27921 12.6951 9.27921C13.4241 9.27921 14.1233 9.56882 14.6388 10.0843C15.1543 10.5998 15.4439 11.299 15.4439 12.028C15.4428 12.1697 15.4305 12.311 15.4072 12.4507C15.3931 12.5604 15.4028 12.6719 15.4356 12.7775C15.4684 12.8832 15.5234 12.9806 15.597 13.0632C15.7166 13.1976 15.8788 13.2868 16.0564 13.3156C15.4457 14.0136 15.037 14.865 14.8742 15.7781C14.7115 16.6911 14.8009 17.6313 15.1329 18.4973C14.453 18.9271 13.8846 19.5119 13.4742 20.2036C13.0639 20.8954 12.8232 21.6746 12.772 22.4773C12.7208 23.28 12.8604 24.0834 13.1795 24.8217C13.4986 25.56 13.9881 26.2123 14.6079 26.725C14.0977 27.4521 13.7865 28.2999 13.7049 29.1844C13.6234 30.0689 13.7745 30.9594 14.1431 31.7675C14.5117 32.5756 15.0851 33.2734 15.8065 33.7916C16.5279 34.3099 17.3722 34.6306 18.2557 34.722C18.2527 34.792 18.2509 34.8611 18.2509 34.9303C18.251 35.2698 18.285 35.6085 18.3524 35.9413C18.2517 36.4832 17.99 36.982 17.6015 37.3729C17.213 37.7637 16.7157 38.0284 16.1745 38.1323C15.6333 38.2362 15.0733 38.1746 14.5677 37.9554C14.062 37.7363 13.6342 37.3698 13.34 36.9038C13.2708 36.7953 13.1753 36.7059 13.0624 36.644C12.9495 36.582 12.8228 36.5496 12.694 36.5496C12.5652 36.5496 12.4385 36.582 12.3256 36.644C12.2127 36.7059 12.1173 36.7953 12.048 36.9038C11.7297 37.4069 11.2565 37.7929 10.6997 38.0037C10.143 38.2146 9.53278 38.2388 8.96106 38.0727C8.38934 37.9067 7.88705 37.5594 7.52984 37.0831C7.17262 36.6069 6.97982 36.0274 6.98048 35.4321V35.4343ZM11.7492 51.4752V39.2064C12.0941 39.022 12.4119 38.791 12.6938 38.52C12.9752 38.7912 13.2928 39.0222 13.6375 39.2064V51.4757L11.7492 51.4752ZM25.6587 51.4752V39.4689C26.1571 39.2155 26.6104 38.8816 27 38.4806C27.3893 38.8815 27.8421 39.2154 28.3401 39.4689V51.477L25.6587 51.4752ZM40.3613 51.4752V39.2064C40.7064 39.0223 41.0245 38.7913 41.3063 38.52C41.5878 38.7909 41.9052 39.0219 42.2495 39.2064V51.4757L40.3613 51.4752Z" fill="#BAA64B"/>
</svg>
