<svg width="56" height="56" viewBox="0 0 56 56" fill="none" xmlns="http://www.w3.org/2000/svg">
<path d="M53.2407 52.4752H44.7808V40.6837C44.9434 40.7035 45.107 40.7139 45.2708 40.7148C46.4054 40.7128 47.493 40.2612 48.2952 39.4588C49.0975 38.6565 49.549 37.5689 49.5509 36.4343V36.3932C50.2676 36.2959 50.948 36.0187 51.5286 35.5875C52.1092 35.1562 52.5711 34.5849 52.8713 33.9269C53.1714 33.2688 53.3 32.5455 53.2451 31.8243C53.1901 31.1031 52.9533 30.4076 52.5569 29.8027C53.048 29.37 53.4332 28.8303 53.6829 28.2253C53.9326 27.6203 54.0401 26.9661 53.9972 26.313C53.9543 25.6599 53.762 25.0254 53.4352 24.4583C53.1085 23.8912 52.6559 23.4066 52.1124 23.042C52.4574 22.0643 52.4354 20.9945 52.0505 20.0319C51.6655 19.0692 50.9439 18.2793 50.0199 17.809C50.0623 17.5688 50.0837 17.3254 50.0837 17.0815C50.082 16.0825 49.7313 15.1156 49.0922 14.3479C48.4531 13.5801 47.5658 13.0599 46.5837 12.8771C46.5456 11.7685 46.0787 10.7181 45.2812 9.94709C44.4838 9.17609 43.4182 8.74477 42.309 8.74403C41.1998 8.7433 40.1337 9.1732 39.3352 9.94313C38.5368 10.7131 38.0684 11.7629 38.0289 12.8714C37.7825 12.9197 37.5409 12.9898 37.307 13.081C37.3734 12.7529 37.407 12.4191 37.4072 12.0843C37.4053 10.87 36.9702 9.69609 36.1802 8.77383C35.3902 7.85156 34.297 7.24141 33.0974 7.05309C33.0981 5.70131 32.5618 4.4046 31.6065 3.44822C30.6512 2.49184 29.3551 1.95412 28.0033 1.95337C26.6515 1.95262 25.3548 2.48888 24.3985 3.4442C23.4421 4.39952 22.9044 5.69563 22.9036 7.0474C21.7034 7.23652 20.61 7.84756 19.82 8.77068C19.03 9.69381 18.5952 10.8685 18.5938 12.0835C18.594 12.4186 18.6277 12.7529 18.6944 13.0814C18.4605 12.9905 18.2189 12.9209 17.9725 12.8736C17.9322 11.7662 17.4638 10.7176 16.6661 9.94846C15.8684 9.17931 14.8035 8.74952 13.6953 8.74952C12.5872 8.74952 11.5222 9.17931 10.7245 9.94846C9.9268 10.7176 9.45849 11.7662 9.4181 12.8736C8.43553 13.0572 7.54799 13.5783 6.9089 14.3469C6.26982 15.1155 5.91935 16.0832 5.9181 17.0828C5.91816 17.3267 5.93953 17.5701 5.98198 17.8103C5.05795 18.2802 4.33614 19.0699 3.95088 20.0323C3.56561 20.9947 3.54315 22.0642 3.88766 23.042C3.34416 23.4066 2.8916 23.8912 2.56483 24.4583C2.23806 25.0254 2.04581 25.6599 2.00287 26.313C1.95993 26.9661 2.06745 27.6203 2.31715 28.2253C2.56686 28.8303 2.95208 29.37 3.44316 29.8027C3.04674 30.4076 2.80999 31.1031 2.75502 31.8243C2.70004 32.5455 2.82863 33.2688 3.12878 33.9269C3.42893 34.5849 3.89086 35.1562 4.47149 35.5875C5.05212 36.0187 5.73252 36.2959 6.44923 36.3932V36.4343C6.45108 37.5689 6.90259 38.6565 7.70485 39.4588C8.5071 40.2612 9.59467 40.7128 10.7293 40.7148C10.8931 40.7139 11.0567 40.7035 11.2193 40.6837V52.4752H2.75935C2.5563 52.4752 2.36156 52.5559 2.21797 52.6995C2.07439 52.843 1.99373 53.0378 1.99373 53.2408C1.99373 53.4439 2.07439 53.6386 2.21797 53.7822C2.36156 53.9258 2.5563 54.0065 2.75935 54.0065H53.2407C53.4438 54.0065 53.6385 53.9258 53.7821 53.7822C53.9257 53.6386 54.0064 53.4439 54.0064 53.2408C54.0064 53.0378 53.9257 52.843 53.7821 52.6995C53.6385 52.5559 53.4438 52.4752 53.2407 52.4752ZM39.4188 14.0662C39.4906 13.9823 39.5433 13.884 39.5735 13.7778C39.6038 13.6716 39.6107 13.5602 39.5938 13.4511C39.5704 13.3114 39.5581 13.1701 39.557 13.0285C39.557 12.2994 39.8466 11.6003 40.3621 11.0848C40.8777 10.5693 41.5768 10.2797 42.3059 10.2797C43.0349 10.2797 43.7341 10.5693 44.2496 11.0848C44.7651 11.6003 45.0547 12.2994 45.0547 13.0285C45.0536 13.1701 45.0413 13.3114 45.0179 13.4511C45.0039 13.5608 45.0136 13.6723 45.0463 13.778C45.0791 13.8836 45.1342 13.981 45.2078 14.0636C45.2825 14.1477 45.3742 14.2149 45.4769 14.2609C45.5795 14.3069 45.6907 14.3306 45.8032 14.3305C46.2443 14.329 46.6793 14.4339 47.0711 14.6365C47.463 14.8391 47.8001 15.1332 48.0539 15.494C48.3078 15.8548 48.4708 16.2715 48.5291 16.7087C48.5874 17.1459 48.5393 17.5908 48.3889 18.0055C48.3539 18.1029 48.3391 18.2064 48.3453 18.3097C48.3515 18.413 48.3785 18.514 48.4248 18.6066C48.4711 18.6991 48.5356 18.7814 48.6146 18.8483C48.6935 18.9152 48.7852 18.9654 48.8841 18.996C49.2785 19.1167 49.6405 19.3247 49.9434 19.6047C50.2463 19.8846 50.4821 20.2292 50.6335 20.6128C50.7848 20.9965 50.8477 21.4093 50.8175 21.8206C50.7873 22.2319 50.6648 22.6311 50.4591 22.9886C50.4054 23.082 50.372 23.1858 50.3611 23.293C50.3502 23.4002 50.3621 23.5085 50.3961 23.6109C50.43 23.7132 50.4851 23.8072 50.5579 23.8867C50.6306 23.9662 50.7194 24.0294 50.8183 24.0723C51.2881 24.2754 51.6918 24.6057 51.9839 25.026C52.276 25.4463 52.4449 25.9398 52.4715 26.451C52.4981 26.9621 52.3814 27.4705 52.1345 27.9189C51.8876 28.3672 51.5204 28.7377 51.0742 28.9885C50.9712 29.0467 50.883 29.128 50.8167 29.226C50.7503 29.324 50.7076 29.4361 50.6919 29.5534C50.6762 29.6707 50.6879 29.79 50.726 29.9021C50.7642 30.0141 50.8278 30.1157 50.9119 30.199C51.299 30.5823 51.5634 31.0721 51.6716 31.606C51.7797 32.1399 51.7268 32.6939 51.5194 33.1977C51.312 33.7014 50.9596 34.1322 50.5069 34.4352C50.0542 34.7382 49.5216 34.8998 48.9769 34.8995C48.902 34.8995 48.8285 34.8938 48.7555 34.8877C48.6358 34.8781 48.5155 34.8968 48.4043 34.9424C48.2932 34.9879 48.1943 35.0589 48.1157 35.1497C48.0372 35.2405 47.981 35.3486 47.952 35.4651C47.9229 35.5816 47.9216 35.7034 47.9483 35.8205C47.9946 36.0214 48.0185 36.2268 48.0196 36.433C48.0203 37.0283 47.8275 37.6077 47.4702 38.084C47.113 38.5603 46.6107 38.9076 46.039 39.0736C45.4673 39.2397 44.8571 39.2154 44.3003 39.0046C43.7436 38.7938 43.2704 38.4078 42.952 37.9047C42.8828 37.7961 42.7873 37.7067 42.6744 37.6448C42.5615 37.5829 42.4348 37.5504 42.3061 37.5504C42.1773 37.5504 42.0506 37.5829 41.9377 37.6448C41.8248 37.7067 41.7293 37.7961 41.6601 37.9047C41.3659 38.3707 40.938 38.7372 40.4324 38.9563C39.9268 39.1755 39.3668 39.2371 38.8256 39.1332C38.2844 39.0292 37.7871 38.7646 37.3986 38.3737C37.01 37.9829 36.7484 37.484 36.6477 36.9422C36.7154 36.6092 36.7497 36.2702 36.75 35.9303C36.75 35.8611 36.75 35.792 36.7452 35.722C37.6284 35.6305 38.4724 35.3099 39.1935 34.7919C39.9147 34.2739 40.488 33.5765 40.8568 32.7687C41.2255 31.961 41.3769 31.071 41.2958 30.1868C41.2148 29.3026 40.9042 28.4549 40.3949 27.7276C41.0146 27.2149 41.5041 26.5626 41.8232 25.8243C42.1423 25.086 42.2819 24.2826 42.2307 23.4799C42.1795 22.6772 41.9388 21.898 41.5285 21.2063C41.1181 20.5145 40.5497 19.9297 39.8699 19.5C40.2017 18.6348 40.2914 17.6956 40.1296 16.7833C39.9677 15.8709 39.5603 15.0199 38.9511 14.3217C39.1317 14.2928 39.2969 14.2026 39.4188 14.0662ZM31.6527 41.0263C32.4703 41.0257 33.2758 40.8282 34.0009 40.4505C34.7261 40.0728 35.3495 39.526 35.8186 38.8563C36.2124 39.4273 36.7385 39.8945 37.352 40.2181C37.9655 40.5417 38.6482 40.7121 39.3418 40.7148C39.5054 40.7139 39.6689 40.7035 39.8314 40.6837V52.4752H30.8714V40.9602C31.1297 41.0023 31.391 41.0244 31.6527 41.0263ZM20.3 13.8842C20.3464 13.7917 20.3735 13.6908 20.3797 13.5876C20.386 13.4843 20.3712 13.3809 20.3364 13.2835C20.1431 12.7487 20.0809 12.1754 20.1549 11.6116C20.2289 11.0478 20.437 10.51 20.7617 10.0432C21.0864 9.57641 21.5183 9.19426 22.0211 8.92878C22.524 8.6633 23.0831 8.52223 23.6517 8.5174C23.774 8.52609 23.8967 8.50676 24.0104 8.46089C24.1242 8.41503 24.2259 8.34383 24.308 8.25271C24.3798 8.16876 24.4325 8.0703 24.4627 7.96406C24.493 7.85782 24.4999 7.7463 24.483 7.63715C24.4529 7.45623 24.4371 7.27323 24.4357 7.08984C24.4357 6.14418 24.8114 5.23725 25.4801 4.56856C26.1488 3.89988 27.0557 3.52421 28.0014 3.52421C28.947 3.52421 29.8539 3.89988 30.5226 4.56856C31.1913 5.23725 31.567 6.14418 31.567 7.08984C31.5656 7.27323 31.5498 7.45623 31.5197 7.63715C31.5059 7.74745 31.516 7.85943 31.5493 7.96549C31.5826 8.07154 31.6383 8.1692 31.7127 8.25184C31.7881 8.33602 31.8806 8.40331 31.9838 8.4493C32.0871 8.49529 32.199 8.51895 32.312 8.51871C32.8838 8.5173 33.4474 8.65377 33.9552 8.91656C34.463 9.17934 34.8999 9.56068 35.2289 10.0283C35.558 10.4958 35.7694 11.0358 35.8453 11.6025C35.9212 12.1692 35.8594 12.7458 35.665 13.2835C35.6302 13.3809 35.6155 13.4844 35.6218 13.5876C35.628 13.6908 35.6551 13.7918 35.7014 13.8843C35.7476 13.9768 35.8121 14.0589 35.891 14.1258C35.9699 14.1928 36.0615 14.243 36.1603 14.2736C36.6714 14.4305 37.1406 14.7006 37.5331 15.0637C37.9255 15.4269 38.2311 15.8738 38.4271 16.3713C38.6231 16.8687 38.7045 17.404 38.6652 17.9372C38.626 18.4705 38.4671 18.988 38.2004 19.4514C38.1467 19.5449 38.1134 19.6487 38.1026 19.756C38.0918 19.8632 38.1037 19.9716 38.1377 20.0739C38.1716 20.1762 38.2268 20.2702 38.2995 20.3498C38.3723 20.4293 38.4611 20.4926 38.56 20.5355C39.1693 20.7988 39.6929 21.227 40.0718 21.7719C40.4508 22.3168 40.6699 22.9568 40.7046 23.6196C40.7393 24.2824 40.5882 24.9417 40.2682 25.5233C39.9483 26.1048 39.4722 26.5853 38.8938 26.9108C38.7908 26.969 38.7027 27.0503 38.6363 27.1483C38.57 27.2463 38.5273 27.3583 38.5115 27.4756C38.4957 27.5929 38.5074 27.7122 38.5454 27.8242C38.5835 27.9363 38.6471 28.038 38.731 28.1213C39.233 28.6184 39.5759 29.2535 39.7162 29.9458C39.8564 30.6381 39.7878 31.3566 39.519 32.0098C39.2502 32.6631 38.7933 33.2217 38.2063 33.6148C37.6194 34.0079 36.9288 34.2176 36.2224 34.2175C36.1249 34.2175 36.0299 34.21 35.9345 34.2026C35.8148 34.1931 35.6944 34.2118 35.5832 34.2574C35.4721 34.303 35.3732 34.3742 35.2946 34.4651C35.216 34.556 35.1599 34.6641 35.1309 34.7807C35.1018 34.8973 35.1006 35.0191 35.1273 35.1362C35.3159 35.9553 35.2085 36.8147 34.8244 37.5623C34.4402 38.3099 33.8039 38.8975 33.0282 39.2211C32.2525 39.5447 31.3873 39.5835 30.5857 39.3306C29.7842 39.0776 29.0979 38.5493 28.6484 37.8391C28.5793 37.7303 28.4838 37.6407 28.3709 37.5787C28.2579 37.5166 28.1311 37.4841 28.0022 37.4841C27.8733 37.4841 27.7465 37.5166 27.6336 37.5787C27.5206 37.6407 27.4252 37.7303 27.356 37.8391C26.9079 38.5518 26.2216 39.0825 25.4191 39.337C24.6166 39.5915 23.7499 39.5533 22.9729 39.2292C22.1959 38.905 21.559 38.3159 21.1753 37.5666C20.7915 36.8172 20.6859 35.9561 20.8771 35.1362C20.9038 35.0191 20.9026 34.8973 20.8736 34.7807C20.8445 34.6641 20.7884 34.556 20.7099 34.4651C20.6313 34.3742 20.5324 34.303 20.4212 34.2574C20.31 34.2118 20.1897 34.1931 20.0699 34.2026C19.9745 34.21 19.8796 34.2175 19.782 34.2175C19.0755 34.2178 18.3849 34.0082 17.7978 33.6152C17.2107 33.2221 16.7537 32.6634 16.4848 32.0101C16.2159 31.3567 16.1474 30.6382 16.2878 29.9458C16.4282 29.2534 16.7713 28.6183 17.2734 28.1213C17.3572 28.0377 17.4205 27.9357 17.4582 27.8235C17.496 27.7112 17.5072 27.5918 17.491 27.4745C17.4748 27.3572 17.4316 27.2452 17.3649 27.1474C17.2981 27.0496 17.2096 26.9686 17.1063 26.9108C16.5278 26.5855 16.0516 26.1051 15.7314 25.5237C15.4113 24.9423 15.2599 24.2831 15.2944 23.6203C15.3289 22.9575 15.5478 22.3175 15.9266 21.7724C16.3053 21.2274 16.8288 20.799 17.4379 20.5355C17.5368 20.4926 17.6256 20.4293 17.6983 20.3498C17.7711 20.2702 17.8263 20.1762 17.8602 20.0739C17.8942 19.9716 17.9061 19.8632 17.8953 19.756C17.8845 19.6487 17.8512 19.5449 17.7975 19.4514C17.5308 18.9879 17.372 18.4702 17.3329 17.9368C17.2938 17.4034 17.3754 16.8681 17.5716 16.3706C17.7678 15.8731 18.0736 15.4263 18.4663 15.0632C18.859 14.7002 19.3285 14.4303 19.8398 14.2736C19.9389 14.2432 20.0307 14.193 20.1098 14.1261C20.1889 14.0592 20.2536 13.9769 20.3 13.8842ZM16.6583 40.7148C17.3519 40.7121 18.0346 40.5417 18.6481 40.2181C19.2616 39.8945 19.7877 39.4273 20.1815 38.8563C20.7221 39.6396 21.4741 40.2532 22.35 40.6257C23.2258 40.9982 24.1895 41.1142 25.1287 40.9602V52.4752H16.1687V40.6837C16.3312 40.7035 16.4946 40.7139 16.6583 40.7148ZM7.98048 36.4343C7.98157 36.2281 8.00549 36.0227 8.05179 35.8218C8.07847 35.7047 8.07722 35.5829 8.04813 35.4664C8.01904 35.3499 7.96293 35.2419 7.88434 35.151C7.80575 35.0602 7.70688 34.9892 7.59575 34.9437C7.48461 34.8982 7.36432 34.8794 7.2446 34.889C7.17154 34.8952 7.09804 34.9008 7.02323 34.9008C6.47828 34.9013 5.9455 34.7397 5.4926 34.4367C5.03971 34.1336 4.68715 33.7027 4.47973 33.1988C4.27232 32.6949 4.21942 32.1407 4.32775 31.6066C4.43609 31.0725 4.70078 30.5827 5.08816 30.1995C5.17225 30.1162 5.23587 30.0145 5.27404 29.9025C5.31222 29.7905 5.3239 29.6711 5.30817 29.5538C5.29244 29.4365 5.24973 29.3244 5.1834 29.2264C5.11706 29.1284 5.0289 29.0471 4.92585 28.9889C4.47968 28.7381 4.11244 28.3676 3.86555 27.9193C3.61867 27.4709 3.50195 26.9625 3.52856 26.4514C3.55517 25.9403 3.72405 25.4467 4.01616 25.0264C4.30827 24.6061 4.71198 24.2758 5.18179 24.0727C5.2807 24.0299 5.36944 23.9666 5.4422 23.8871C5.51496 23.8076 5.57011 23.7136 5.60402 23.6113C5.63793 23.509 5.64984 23.4007 5.63898 23.2934C5.62811 23.1862 5.59472 23.0825 5.54098 22.989C5.33525 22.6316 5.21273 22.2324 5.18255 21.8211C5.15236 21.4098 5.21528 20.9969 5.36662 20.6133C5.51795 20.2296 5.75383 19.885 6.05669 19.6051C6.35956 19.3252 6.72162 19.1171 7.11598 18.9964C7.21499 18.966 7.30681 18.9159 7.3859 18.849C7.46498 18.7821 7.52969 18.6999 7.5761 18.6074C7.62251 18.5148 7.64967 18.4137 7.65594 18.3104C7.6622 18.207 7.64744 18.1034 7.61254 18.0059C7.46349 17.5942 7.41521 17.1528 7.47172 16.7186C7.52824 16.2845 7.68791 15.8701 7.93738 15.5103C8.18686 15.1505 8.51887 14.8557 8.90565 14.6505C9.29243 14.4453 9.72273 14.3357 10.1605 14.3309C10.2815 14.3385 10.4026 14.3186 10.5147 14.2726C10.6269 14.2267 10.7271 14.156 10.808 14.0658C10.8798 13.9819 10.9326 13.8835 10.9628 13.7773C10.993 13.6712 10.9999 13.5597 10.983 13.4507C10.9597 13.311 10.9474 13.1697 10.9463 13.028C10.9463 12.299 11.2359 11.5998 11.7514 11.0843C12.2669 10.5688 12.9661 10.2792 13.6951 10.2792C14.4241 10.2792 15.1233 10.5688 15.6388 11.0843C16.1543 11.5998 16.4439 12.299 16.4439 13.028C16.4428 13.1697 16.4305 13.311 16.4072 13.4507C16.3931 13.5604 16.4028 13.6719 16.4356 13.7775C16.4684 13.8832 16.5234 13.9806 16.597 14.0632C16.7166 14.1976 16.8788 14.2868 17.0564 14.3156C16.4457 15.0136 16.037 15.865 15.8742 16.7781C15.7115 17.6911 15.8009 18.6313 16.1329 19.4973C15.453 19.9271 14.8846 20.5119 14.4742 21.2036C14.0639 21.8954 13.8232 22.6746 13.772 23.4773C13.7208 24.28 13.8604 25.0834 14.1795 25.8217C14.4986 26.56 14.9881 27.2123 15.6079 27.725C15.0977 28.4521 14.7865 29.2999 14.7049 30.1844C14.6234 31.0689 14.7745 31.9594 15.1431 32.7675C15.5117 33.5756 16.0851 34.2734 16.8065 34.7916C17.5279 35.3099 18.3722 35.6306 19.2557 35.722C19.2527 35.792 19.2509 35.8611 19.2509 35.9303C19.251 36.2698 19.285 36.6085 19.3524 36.9413C19.2517 37.4832 18.99 37.982 18.6015 38.3729C18.213 38.7637 17.7157 39.0284 17.1745 39.1323C16.6333 39.2362 16.0733 39.1746 15.5677 38.9554C15.062 38.7363 14.6342 38.3698 14.34 37.9038C14.2708 37.7953 14.1753 37.7059 14.0624 37.644C13.9495 37.582 13.8228 37.5496 13.694 37.5496C13.5652 37.5496 13.4385 37.582 13.3256 37.644C13.2127 37.7059 13.1173 37.7953 13.048 37.9038C12.7297 38.4069 12.2565 38.7929 11.6997 39.0037C11.143 39.2146 10.5328 39.2388 9.96106 39.0727C9.38934 38.9067 8.88705 38.5594 8.52984 38.0831C8.17262 37.6069 7.97982 37.0274 7.98048 36.4321V36.4343ZM12.7492 52.4752V40.2064C13.0941 40.022 13.4119 39.791 13.6938 39.52C13.9752 39.7912 14.2928 40.0222 14.6375 40.2064V52.4757L12.7492 52.4752ZM26.6587 52.4752V40.4689C27.1571 40.2155 27.6104 39.8816 28 39.4806C28.3893 39.8815 28.8421 40.2154 29.3401 40.4689V52.477L26.6587 52.4752ZM41.3613 52.4752V40.2064C41.7064 40.0223 42.0245 39.7913 42.3063 39.52C42.5878 39.7909 42.9052 40.0219 43.2495 40.2064V52.4757L41.3613 52.4752Z" fill="#BAA64B"/>
<path d="M31.522 14.5033C31.4601 14.6964 31.4773 14.9062 31.5699 15.0867C31.6625 15.2671 31.8229 15.4035 32.016 15.4658C32.0918 15.4905 32.1711 15.503 32.2509 15.5029C32.4129 15.5028 32.5708 15.4513 32.7017 15.3559C32.8327 15.2605 32.93 15.126 32.9798 14.9718C33.1451 14.5154 33.1661 14.0192 33.0399 13.5505C32.9137 13.0818 32.6463 12.6632 32.2741 12.3516C32.1259 12.2128 31.9285 12.1385 31.7256 12.1452C31.5226 12.1518 31.3306 12.2388 31.1917 12.3871C31.0529 12.5353 30.9786 12.7326 30.9853 12.9356C30.9919 13.1386 31.0789 13.3306 31.2272 13.4694C31.3864 13.5826 31.5024 13.7467 31.556 13.9346C31.6096 14.1225 31.5976 14.3231 31.522 14.5033Z" fill="#BAA64B"/>
<path d="M33.0055 31.2251H33.0025C32.9019 31.2255 32.8024 31.2457 32.7097 31.2845C32.617 31.3234 32.5328 31.3801 32.462 31.4515C32.3912 31.5229 32.3351 31.6075 32.297 31.7006C32.2589 31.7936 32.2395 31.8932 32.2399 31.9938C32.2434 32.7616 32.1655 32.8452 31.7919 33.2459C31.6535 33.3945 31.5797 33.592 31.5869 33.7949C31.5941 33.9978 31.6816 34.1896 31.8302 34.3281C31.9787 34.4665 32.1762 34.5402 32.3792 34.533C32.5821 34.5259 32.7739 34.4384 32.9123 34.2898C33.5506 33.6051 33.7764 33.1523 33.7711 31.9872C33.7702 31.7848 33.6891 31.5909 33.5457 31.4481C33.4022 31.3053 33.208 31.2251 33.0055 31.2251Z" fill="#BAA64B"/>
<path d="M32.9954 17.099C32.8816 17.2671 32.8392 17.4736 32.8776 17.6729C32.916 17.8723 33.032 18.0482 33.2001 18.1621C33.2111 18.1695 34.2912 18.9286 34.4002 20.0018C34.4357 20.4309 34.38 20.8627 34.2367 21.2687C34.0934 21.6748 33.8659 22.0459 33.5689 22.3577C33.4283 22.4986 33.348 22.6887 33.3452 22.8878C33.3423 23.0868 33.417 23.2792 33.5535 23.4241C33.69 23.569 33.8776 23.6551 34.0764 23.6641C34.2753 23.6732 34.4699 23.6044 34.6189 23.4725C35.084 22.9975 35.4412 22.4277 35.666 21.8021C35.8907 21.1765 35.9779 20.5097 35.9214 19.8473C35.7389 18.0536 34.125 16.9406 34.0567 16.8942C33.8887 16.781 33.6827 16.7389 33.4837 16.7773C33.2848 16.8157 33.1092 16.9313 32.9954 17.099Z" fill="#BAA64B"/>
</svg>
