<svg width="52" height="52" viewBox="0 0 52 52" fill="none" xmlns="http://www.w3.org/2000/svg">
<path d="M4.57031 9.14062C7.09038 9.14062 9.14062 7.09038 9.14062 4.57031C9.14062 2.05024 7.09038 0 4.57031 0C2.05024 0 0 2.05024 0 4.57031C0 7.09038 2.05024 9.14062 4.57031 9.14062ZM4.57031 1.52344C6.25036 1.52344 7.61719 2.89027 7.61719 4.57031C7.61719 6.25036 6.25036 7.61719 4.57031 7.61719C2.89027 7.61719 1.52344 6.25036 1.52344 4.57031C1.52344 2.89027 2.89027 1.52344 4.57031 1.52344ZM26 32.1057C23.5951 32.1057 21.3341 33.0423 19.6336 34.7428C19.0898 35.2866 18.625 35.8882 18.2432 36.533H8.9507C6.96739 36.533 5.1023 35.7604 3.69911 34.3571C2.29602 32.955 1.52344 31.0901 1.52344 29.1058C1.52344 27.4862 2.03552 25.9471 3.00432 24.6551C3.94174 23.4049 5.27556 22.4646 6.76 22.0073C7.51573 21.7742 8.02344 21.0793 8.02344 20.2698C8.02344 17.7202 8.9309 15.2474 10.5785 13.3066C10.8508 12.9859 10.8115 12.5052 10.4909 12.2329C10.1704 11.9607 9.68957 11.9999 9.41728 12.3205C7.53604 14.5364 6.5 17.3595 6.5 20.278C6.5 20.4067 6.42403 20.5166 6.3113 20.5513C4.52177 21.1026 2.91454 22.2354 1.78547 23.7411C0.617398 25.2989 0 27.154 0 29.1058C0 31.4973 0.931226 33.7449 2.62204 35.4344C4.31285 37.1252 6.56043 38.0564 8.9507 38.0564H17.5252C17.1779 39.0227 16.9966 40.0519 16.9966 41.1092C16.9966 43.5141 17.9331 45.775 19.6337 47.4757C21.3889 49.2309 23.6945 50.1085 26.0001 50.1085C28.3057 50.1085 30.6113 49.2309 32.3665 47.4757C34.0671 45.7751 35.0036 43.5141 35.0036 41.1092C35.0036 38.7043 34.0671 36.4434 32.3665 34.7427C30.6659 33.0423 28.4049 32.1057 26 32.1057ZM18.5199 41.1094C18.5199 39.1097 19.3054 37.2255 20.7107 35.8202C22.1236 34.4073 24.002 33.6293 26 33.6293C27.7418 33.6293 29.3925 34.221 30.7234 35.3088L20.1994 45.8327C19.1116 44.5018 18.5199 42.851 18.5199 41.1094ZM31.2893 46.3984C28.5545 49.1332 24.2119 49.3036 21.2767 46.9098L31.8006 36.3859C32.8884 37.7167 33.4801 39.3674 33.4801 41.1092C33.4801 43.1072 32.702 44.9857 31.2893 46.3984ZM38.6898 32.8755C38.6845 32.4582 38.3446 32.1234 37.9283 32.1234C37.9251 32.1234 37.9218 32.1234 37.9186 32.1235C37.3946 32.13 36.8414 32.1346 36.3598 32.1363C36.6768 31.7096 37.0983 31.1299 37.6476 30.3451C38.0307 29.7977 38.2809 29.2787 38.3915 28.8025C38.7137 27.4144 37.5373 26.1344 36.1721 26.1344C35.0908 26.1344 34.1547 26.9037 33.9465 27.9638C33.8654 28.3766 34.1342 28.7769 34.5471 28.8581C34.96 28.9389 35.3603 28.6702 35.4414 28.2574C35.5096 27.91 35.8169 27.6579 36.1721 27.6579C36.6228 27.6579 37.0093 28.0648 36.8993 28.4917C36.8283 28.7674 36.656 29.1053 36.3995 29.4717C35.4681 30.8026 34.9123 31.5303 34.6137 31.9211C34.2364 32.4151 34.047 32.6631 34.1752 33.0794C34.2511 33.3263 34.4376 33.5155 34.687 33.5986C34.7868 33.6318 34.8766 33.6618 36.0425 33.6618C36.4928 33.6618 37.1037 33.6573 37.9377 33.6468C38.3583 33.6415 38.6951 33.2962 38.6898 32.8755ZM47.4297 42.8594C44.9096 42.8594 42.8594 44.9096 42.8594 47.4297C42.8594 49.9498 44.9096 52 47.4297 52C49.9498 52 52 49.9498 52 47.4297C52 44.9096 49.9498 42.8594 47.4297 42.8594ZM47.4297 50.4766C45.7496 50.4766 44.3828 49.1097 44.3828 47.4297C44.3828 45.7496 45.7496 44.3828 47.4297 44.3828C49.1097 44.3828 50.4766 45.7496 50.4766 47.4297C50.4766 49.1097 49.1097 50.4766 47.4297 50.4766ZM52 29.1058C52 26.7143 51.0688 24.4667 49.378 22.7771C47.6871 21.0864 45.4396 20.1552 43.0493 20.1552C42.8619 20.1552 42.6025 20.1818 42.5284 19.9638C41.0561 15.6327 36.9918 12.7227 32.4147 12.7227C31.2835 12.7227 30.169 12.8989 29.1019 13.2468C28.9919 13.2831 28.8692 13.2389 28.7974 13.1385C26.493 9.90884 22.7514 7.98078 18.7891 7.98078C16.4731 7.98078 14.2167 8.62875 12.264 9.85451C11.9077 10.0781 11.8001 10.5484 12.0238 10.9047C12.2473 11.2609 12.7176 11.3683 13.0738 11.1449C14.7837 10.0715 16.7599 9.50422 18.7891 9.50422C22.2603 9.50422 25.5382 11.1936 27.558 14.0242C28.0191 14.6687 28.8293 14.9382 29.5744 14.6951C30.4885 14.3971 31.4441 14.2461 32.4147 14.2461C36.3391 14.2461 39.8239 16.7409 41.0865 20.4556C41.3498 21.23 42.1975 21.6785 43.0493 21.6785C45.0326 21.6785 46.8976 22.4512 48.3009 23.8545C49.7039 25.2566 50.4766 27.1215 50.4766 29.1058C50.4766 33.2012 47.1447 36.533 43.0493 36.533H37.6024C37.1817 36.533 36.8407 36.874 36.8407 37.2948C36.8407 37.7155 37.1817 38.0565 37.6024 38.0565H43.0493C47.9847 38.0565 52 34.0412 52 29.1058ZM18.3088 21.8211C19.0053 21.8211 19.677 22.0262 20.2513 22.4141C20.5999 22.6495 21.0733 22.5579 21.3088 22.2093C21.5444 21.8607 21.4526 21.3872 21.104 21.1517C20.277 20.593 19.3103 20.2977 18.3087 20.2977C15.5524 20.2977 13.31 22.5401 13.31 25.2964C13.31 28.0527 15.5524 30.2951 18.3087 30.2951C19.6172 30.2951 20.7604 29.782 21.5615 28.8267C21.8319 28.5043 21.7897 28.0239 21.4674 27.7537C21.1451 27.4833 20.6646 27.5255 20.3943 27.8478C19.8793 28.4619 19.1724 28.7717 18.3087 28.7717C16.3924 28.7717 14.8334 27.2128 14.8334 25.2965C14.8334 23.3802 16.3926 21.8211 18.3088 21.8211ZM32.7693 25.2963C32.7693 22.54 30.5269 20.2976 27.7706 20.2976C25.0143 20.2976 22.7719 22.54 22.7719 25.2963C22.7719 28.0526 25.0143 30.295 27.7706 30.295C30.5269 30.295 32.7693 28.0526 32.7693 25.2963ZM24.2955 25.2963C24.2955 23.38 25.8545 21.821 27.7707 21.821C29.687 21.821 31.246 23.38 31.246 25.2963C31.246 27.2126 29.687 28.7715 27.7707 28.7715C25.8545 28.7715 24.2955 27.2126 24.2955 25.2963Z" fill="#BAA64B"/>
</svg>
