<svg width="137" height="80" viewBox="0 0 137 80" fill="none" xmlns="http://www.w3.org/2000/svg">
<path opacity="0.5" fill-rule="evenodd" clip-rule="evenodd" d="M38.793 49.0962H39.8607V23.2567L41.1326 22.8977V49.0962H44.6297V20.9609L45.9015 20.602V49.0962H59.6387V20.8061L48.9344 16.5244L38.793 22.0424V49.0962ZM49.2267 22.4299V21.1219L57.366 23.537V24.845L49.2267 22.4299ZM49.2267 33.7494V32.4414L57.366 34.8565V36.1645L49.2267 33.7494ZM49.2267 44.6919V43.3838L57.366 45.7989V47.107L49.2267 44.6919Z" fill="white"/>
<path fill-rule="evenodd" clip-rule="evenodd" d="M61.8486 49.0961H64.4107V8.79198L66.3208 8.25299V49.0961H71.5733V5.34393L73.4835 4.80494V49.0963H92.7227V6.34212L76.8689 0.000488281L61.8486 6.1461V49.0966V49.0961ZM78.9138 6.57744V4.75707L90.2419 8.92488V10.7452L78.9138 6.57744ZM78.9138 17.301V15.4806L90.2419 19.6484V21.4688L78.9138 17.301ZM78.9138 28.0246V26.2042L90.2419 30.372V32.1924L78.9138 28.0246ZM78.9138 38.7481V36.9278L90.2419 41.0956V42.9159L78.9138 38.7481Z" fill="white"/>
<path opacity="0.5" fill-rule="evenodd" clip-rule="evenodd" d="M94.4043 49.0962H96.3897V22.2561L97.7723 21.8658V49.0962H101.083V19.7601L102.466 19.3697V49.096H115.25V19.8241L104.546 15.5425L94.4043 21.0605V49.0962ZM104.838 21.7762V20.4682L112.977 22.8833V24.1913L104.838 21.7762ZM104.838 33.0957V31.7876L112.977 34.2027V35.5108L104.838 33.0957ZM104.838 44.0381V42.7301L112.977 45.1452V46.4532L104.838 44.0381Z" fill="white"/>
<g opacity="0.5">
<path d="M1.98137 55.1869C1.98137 57.0427 3.49164 58.5525 5.34749 58.5525C7.20287 58.5525 8.71337 57.0427 8.71337 55.1869C8.71337 53.3312 7.20287 51.8215 5.34749 51.8215C3.49164 51.8215 1.98137 53.3312 1.98137 55.1869ZM10.6945 55.1869C10.6945 58.1355 8.29609 60.5341 5.34749 60.5341C2.39865 60.5341 0 58.1355 0 55.1869C0 52.2385 2.39865 49.8398 5.34749 49.8398C8.29609 49.8398 10.6945 52.2385 10.6945 55.1869Z" fill="white"/>
<path d="M12.8762 53.8949V56.4336C12.8762 57.6426 11.8873 58.6319 10.6783 58.6319C9.46889 58.6319 9.70397 57.6426 9.70397 56.4336V53.8949C9.70397 52.6859 9.46889 51.6968 10.6783 51.6968C11.8873 51.6968 12.8762 52.6859 12.8762 53.8949Z" fill="white"/>
<path d="M15.7868 52.1298V58.1987C15.7868 59.4077 14.7974 60.397 13.5882 60.397C12.3793 60.397 11.3896 59.4077 11.3896 58.1987V52.1298C11.3896 50.9208 12.3793 49.9316 13.5882 49.9316C14.7974 49.9316 15.7868 50.9208 15.7868 52.1298Z" fill="white"/>
<path d="M33.8108 51.0288C33.8108 52.7517 33.3568 54.4478 32.4984 55.9323C31.5881 57.5062 30.5604 57.6767 29.5665 57.8418C28.4842 58.0218 27.1378 58.245 24.7316 60.5198C24.4843 60.8311 23.6259 62.1149 24.9862 63.4036C25.3827 63.7792 25.4003 64.4063 25.0238 64.8039C24.6475 65.2014 24.0197 65.2178 23.6229 64.8417C21.3483 62.6862 22.3867 60.2073 23.2534 59.1977L23.3225 59.1251C26.197 56.393 28.0298 56.0886 29.2421 55.8873C30.0864 55.7468 30.3406 55.7044 30.7829 54.9406C31.4678 53.7571 31.8294 52.404 31.8294 51.029C31.8294 46.715 28.3197 43.2052 24.0051 43.2052C19.6915 43.2052 16.1818 46.715 16.1818 51.029C16.1818 52.3623 16.5041 53.1452 17.2281 54.3966C17.5025 54.8698 17.3403 55.4765 16.8666 55.7499C16.3926 56.0238 15.7867 55.8623 15.513 55.3886C14.7949 54.1465 14.2002 52.9613 14.2002 51.029C14.2002 45.6222 18.5988 41.2236 24.0054 41.2236C29.4126 41.2236 33.8112 45.6222 33.8112 51.029L33.8108 51.0288Z" fill="white"/>
<path d="M33.8103 59.3002C33.8103 64.7066 29.4117 69.1054 24.0044 69.1054C18.5978 69.1054 14.1992 64.7066 14.1992 59.3002C14.1992 57.5766 14.6532 55.8808 15.512 54.3962C16.4824 52.7188 18.2172 52.1981 19.7475 51.7382C21.1006 51.3316 22.3786 50.9475 23.2267 49.8721C23.458 49.5925 24.4355 48.2616 23.0243 46.9256C22.627 46.55 22.6099 45.9229 22.9864 45.5252C23.3625 45.1279 23.9903 45.111 24.3874 45.4875C26.6622 47.6423 25.624 50.1222 24.7561 51.1313C23.548 52.6657 21.8313 53.1808 20.3174 53.636C18.9689 54.0413 17.8045 54.3912 17.2274 55.3887C16.5426 56.5722 16.1811 57.9248 16.1811 59.3005C16.1811 63.6143 19.6908 67.124 24.0044 67.124C28.3192 67.124 31.8287 63.6143 31.8287 59.3005C31.8287 57.9669 31.5062 57.1838 30.7821 55.9329C30.5075 55.4594 30.6699 54.8533 31.1439 54.5791C31.6176 54.3052 32.2238 54.4672 32.4977 54.9407C33.2155 56.1828 33.81 57.3674 33.81 59.3005L33.8103 59.3002Z" fill="white"/>
<path d="M33.0107 58.0209V52.3537C33.0107 52.1327 33.1891 51.9536 33.4104 51.9536C33.6317 51.9536 33.811 52.1327 33.811 52.3537V58.0209C33.811 58.2419 33.6317 58.421 33.4104 58.421C33.1891 58.421 33.0107 58.2419 33.0107 58.0209Z" fill="white"/>
<path d="M33.4287 57.3394V53.0349C33.4287 52.4378 33.9127 51.9536 34.51 51.9536C35.1071 51.9536 35.5913 52.4381 35.5913 53.0349V57.3394C35.5913 57.9366 35.1069 58.4208 34.51 58.4208C33.9124 58.4208 33.4287 57.9363 33.4287 57.3394Z" fill="white"/>
<path d="M32.2412 57.3506H79.1501V53.0244H32.2412V57.3506Z" fill="white"/>
<path d="M78.3496 58.0209V52.3537C78.3496 52.1327 78.5287 51.9536 78.7493 51.9536C78.9705 51.9536 79.1499 52.1327 79.1499 52.3537V58.0209C79.1499 58.2419 78.9705 58.421 78.7493 58.421C78.5287 58.421 78.3496 58.2419 78.3496 58.0209Z" fill="white"/>
<path d="M78.7666 57.3394V53.0349C78.7666 52.4378 79.251 51.9536 79.8479 51.9536C80.4455 51.9536 80.9297 52.4381 80.9297 53.0349V57.3394C80.9297 57.9366 80.4453 58.4208 79.8479 58.4208C79.2508 58.4208 78.7666 57.9363 78.7666 57.3394Z" fill="white"/>
<path d="M81.6143 57.3506H119.987V53.0244H81.6143V57.3506Z" fill="white"/>
<path d="M119.436 57.3505H136.531V51.9487H119.436V57.3505Z" fill="white"/>
<path d="M124.544 43.6055H119.436V51.127H136.531V43.6055H131.421V47.8847H132.476V49.2735H123.49V47.8847H124.544V43.6055Z" fill="white"/>
</g>
<path d="M46.1873 63.0146V65.3847C45.1076 64.4103 43.916 63.923 42.6125 63.923C41.1904 63.923 40.0352 64.3937 39.1466 65.3352C38.2577 66.2767 37.8133 67.4783 37.8133 68.9397C37.8133 70.3485 38.2675 71.5237 39.1759 72.4652C40.0845 73.4067 41.2366 73.8773 42.632 73.8773C43.9356 73.8773 45.1207 73.3705 46.1873 72.3566V74.7464C45.0814 75.4047 43.8765 75.7339 42.573 75.7339C40.7429 75.7339 39.1892 75.1282 37.9119 73.9168C36.5031 72.6002 35.7988 70.9413 35.7988 68.94C35.7988 66.8333 36.5031 65.1151 37.9119 63.7851C39.1233 62.6398 40.71 62.0667 42.6716 62.0667C44.028 62.0667 45.1996 62.383 46.1873 63.0149V63.0146ZM54.0477 68.9397H51.6186V75.4769H49.683V68.9397H47.2538V67.1622H54.0477V68.9397ZM57.3658 74.5092V79.9998H55.4304V67.1622H57.3658V68.0709C57.9979 67.3204 58.8208 66.945 59.8347 66.945C60.9672 66.945 61.9249 67.3435 62.7082 68.1399C63.4916 68.9366 63.8834 69.9798 63.8834 71.2703C63.8834 72.6 63.4752 73.6763 62.6589 74.4994C61.8425 75.3223 60.9076 75.7336 59.8544 75.7336C58.867 75.7336 58.0374 75.3254 57.3658 74.5092ZM59.5977 68.6827C58.9394 68.6827 58.383 68.9164 57.9286 69.3839C57.4744 69.8512 57.2474 70.5129 57.2474 71.3689C57.2474 72.1984 57.4744 72.8434 57.9286 73.3043C58.383 73.7651 58.9391 73.9954 59.5977 73.9954C60.2824 73.9954 60.8386 73.7387 61.2666 73.2252C61.6946 72.7119 61.9085 72.0865 61.9085 71.3488C61.9085 70.5984 61.6943 69.9665 61.2666 69.453C60.8386 68.9395 60.2824 68.6827 59.5977 68.6827ZM66.7372 68.1792C67.5865 67.3561 68.6431 66.9448 69.9071 66.9448C71.1711 66.9448 72.2276 67.3561 73.0769 68.1792C73.926 69.0021 74.3507 70.052 74.3507 71.3293C74.3507 72.5933 73.926 73.6432 73.0769 74.4794C72.2276 75.3156 71.1711 75.7336 69.9071 75.7336C68.6431 75.7336 67.5865 75.3156 66.7372 74.4794C65.8881 73.6432 65.4634 72.5933 65.4634 71.3293C65.4634 70.052 65.8881 69.0021 66.7372 68.1792ZM68.11 73.2745C68.5576 73.7551 69.1568 73.9954 69.9073 73.9954C70.6578 73.9954 71.257 73.7551 71.7046 73.2745C72.1523 72.7941 72.3762 72.1522 72.3762 71.3488C72.3762 70.4669 72.1359 69.8019 71.6553 69.3544C71.1746 68.9066 70.5921 68.6827 69.9073 68.6827C69.2225 68.6827 68.6402 68.9066 68.1593 69.3544C67.6787 69.8019 67.4384 70.4669 67.4384 71.3488C67.4384 72.152 67.6623 72.7941 68.11 73.2745ZM76.3654 67.162H78.3008V71.8824L83.9889 66.4115V75.4769H82.0535V70.6381L76.3654 76.1088V67.162ZM76.9975 63.5677L78.5776 63.1132C78.8276 63.9692 79.3676 64.3973 80.1972 64.3973C81.0134 64.3973 81.5533 63.9692 81.8167 63.1132L83.3968 63.5677C83.1862 64.3182 82.7616 64.8943 82.123 65.2956C81.4845 65.6972 80.8426 65.898 80.1974 65.898C79.5522 65.898 78.9103 65.6972 78.2718 65.2956C77.633 64.8943 77.2085 64.3182 76.998 63.5677H76.9975ZM100.52 75.4769L99.1375 72.297H93.5087L92.0671 75.4769H89.8944L96.4514 61.5332L102.692 75.4769H100.52H100.52ZM94.3383 70.4012H98.3277L96.3723 65.9375L94.3383 70.4012ZM103.996 67.162H105.931V70.1244L108.697 67.162H111.264L107.63 70.796L111.462 75.4766H109.013L106.248 72.06L105.931 72.3761V75.4769H103.996V67.162ZM118.651 68.9395H116.222V75.4766H114.286V68.9395H111.857V67.162H118.651V68.9395ZM120.033 67.162H121.969V71.8824L127.657 66.4115V75.4769H125.721V70.6381L120.033 76.1088V67.162ZM130.106 67.162H133.365C134.194 67.162 134.826 67.3268 135.261 67.656C135.774 68.0639 136.031 68.5975 136.031 69.2555C136.031 70.0063 135.702 70.546 135.043 70.8751C135.465 70.9542 135.84 71.1385 136.169 71.4282C136.604 71.8231 136.821 72.3563 136.821 73.028C136.821 73.8311 136.518 74.463 135.913 74.9238C135.412 75.2925 134.774 75.4769 133.997 75.4769H130.106V67.162ZM132.041 70.4012H133.029C133.371 70.4012 133.628 70.3418 133.799 70.2235C134.049 70.0653 134.174 69.8414 134.174 69.5518C134.174 69.2753 134.062 69.0581 133.839 68.8999C133.68 68.7947 133.397 68.742 132.989 68.742H132.041V70.4009L132.041 70.4012ZM132.041 73.8968H133.483C133.918 73.8968 134.253 73.8178 134.49 73.6596C134.754 73.4886 134.885 73.245 134.885 72.9291C134.885 72.5866 134.76 72.3432 134.51 72.1984C134.286 72.0536 133.964 71.9812 133.542 71.9812H132.041V73.8971L132.041 73.8968Z" fill="white"/>
</svg>
