<svg width="137" height="80" viewBox="0 0 137 80" fill="none" xmlns="http://www.w3.org/2000/svg">
<path opacity="0.5" fill-rule="evenodd" clip-rule="evenodd" d="M38.793 49.0961H39.8607V23.2566L41.1326 22.8977V49.0961H44.6297V20.9608L45.9015 20.6019V49.0961H59.6387V20.806L48.9344 16.5243L38.793 22.0424V49.0961ZM49.2267 22.4299V21.1218L57.366 23.5369V24.845L49.2267 22.4299ZM49.2267 33.7494V32.4413L57.366 34.8564V36.1644L49.2267 33.7494ZM49.2267 44.6918V43.3837L57.366 45.7988V47.1069L49.2267 44.6918Z" fill="#17171A"/>
<path fill-rule="evenodd" clip-rule="evenodd" d="M61.8486 49.0961H64.4107V8.79202L66.3208 8.25303V49.0961H71.5733V5.34396L73.4835 4.80498V49.0964H92.7227V6.34215L76.8689 0.000522614L61.8486 6.14614V49.0966V49.0961ZM78.9138 6.57747V4.7571L90.2419 8.92492V10.7453L78.9138 6.57747ZM78.9138 17.301V15.4807L90.2419 19.6485V21.4688L78.9138 17.301ZM78.9138 28.0246V26.2042L90.2419 30.372V32.1924L78.9138 28.0246ZM78.9138 38.7482V36.9278L90.2419 41.0956V42.916L78.9138 38.7482Z" fill="#3B4658"/>
<path opacity="0.5" fill-rule="evenodd" clip-rule="evenodd" d="M94.4043 49.0961H96.3897V22.256L97.7723 21.8656V49.0961H101.083V19.7599L102.466 19.3696V49.0959H115.25V19.824L104.546 15.5424L94.4043 21.0604V49.0961ZM104.838 21.7761V20.468L112.977 22.8831V24.1912L104.838 21.7761ZM104.838 33.0956V31.7875L112.977 34.2026V35.5107L104.838 33.0956ZM104.838 44.038V42.73L112.977 45.145V46.4531L104.838 44.038Z" fill="#17171A"/>
<g opacity="0.5">
<path d="M1.98137 55.187C1.98137 57.0428 3.49164 58.5526 5.34749 58.5526C7.20287 58.5526 8.71337 57.0428 8.71337 55.187C8.71337 53.3313 7.20287 51.8216 5.34749 51.8216C3.49164 51.8216 1.98137 53.3313 1.98137 55.187ZM10.6945 55.187C10.6945 58.1356 8.29609 60.5342 5.34749 60.5342C2.39865 60.5342 0 58.1356 0 55.187C0 52.2386 2.39865 49.8399 5.34749 49.8399C8.29609 49.8399 10.6945 52.2386 10.6945 55.187Z" fill="#17171A"/>
<path d="M12.8762 53.8949V56.4336C12.8762 57.6425 11.8873 58.6319 10.6783 58.6319C9.46889 58.6319 9.70397 57.6425 9.70397 56.4336V53.8949C9.70397 52.6859 9.46889 51.6967 10.6783 51.6967C11.8873 51.6967 12.8762 52.6859 12.8762 53.8949Z" fill="#17171A"/>
<path d="M15.7868 52.1298V58.1987C15.7868 59.4077 14.7974 60.397 13.5882 60.397C12.3793 60.397 11.3896 59.4077 11.3896 58.1987V52.1298C11.3896 50.9208 12.3793 49.9316 13.5882 49.9316C14.7974 49.9316 15.7868 50.9208 15.7868 52.1298Z" fill="#17171A"/>
<path d="M33.8108 51.0287C33.8108 52.7516 33.3568 54.4477 32.4984 55.9322C31.5881 57.5061 30.5604 57.6766 29.5665 57.8417C28.4842 58.0217 27.1378 58.2449 24.7316 60.5197C24.4843 60.831 23.6259 62.1147 24.9862 63.4035C25.3827 63.7791 25.4003 64.4062 25.0238 64.8037C24.6475 65.2012 24.0197 65.2177 23.6229 64.8416C21.3483 62.6861 22.3867 60.2072 23.2534 59.1976L23.3225 59.1249C26.197 56.3928 28.0298 56.0884 29.2421 55.8872C30.0864 55.7467 30.3406 55.7043 30.7829 54.9404C31.4678 53.757 31.8294 52.4039 31.8294 51.0289C31.8294 46.7149 28.3197 43.2051 24.0051 43.2051C19.6915 43.2051 16.1818 46.7149 16.1818 51.0289C16.1818 52.3622 16.5041 53.1451 17.2281 54.3965C17.5025 54.8697 17.3403 55.4763 16.8666 55.7498C16.3926 56.0237 15.7867 55.8622 15.513 55.3885C14.7949 54.1464 14.2002 52.9612 14.2002 51.0289C14.2002 45.6221 18.5988 41.2235 24.0054 41.2235C29.4126 41.2235 33.8112 45.6221 33.8112 51.0289L33.8108 51.0287Z" fill="#17171A"/>
<path d="M33.8103 59.3002C33.8103 64.7065 29.4117 69.1054 24.0044 69.1054C18.5978 69.1054 14.1992 64.7065 14.1992 59.3002C14.1992 57.5766 14.6532 55.8807 15.512 54.3962C16.4824 52.7187 18.2172 52.1981 19.7475 51.7382C21.1006 51.3316 22.3786 50.9474 23.2267 49.8721C23.458 49.5925 24.4355 48.2616 23.0243 46.9256C22.627 46.55 22.6099 45.9229 22.9864 45.5252C23.3625 45.1279 23.9903 45.111 24.3874 45.4875C26.6622 47.6423 25.624 50.1222 24.7561 51.1313C23.548 52.6656 21.8313 53.1808 20.3174 53.636C18.9689 54.0413 17.8045 54.3912 17.2274 55.3887C16.5426 56.5722 16.1811 57.9248 16.1811 59.3005C16.1811 63.6143 19.6908 67.124 24.0044 67.124C28.3192 67.124 31.8287 63.6143 31.8287 59.3005C31.8287 57.9669 31.5062 57.1838 30.7821 55.9329C30.5075 55.4594 30.6699 54.8533 31.1439 54.5791C31.6176 54.3052 32.2238 54.4672 32.4977 54.9407C33.2155 56.1828 33.81 57.3674 33.81 59.3005L33.8103 59.3002Z" fill="#17171A"/>
<path d="M33.0107 58.0208V52.3536C33.0107 52.1326 33.1891 51.9535 33.4104 51.9535C33.6317 51.9535 33.811 52.1326 33.811 52.3536V58.0208C33.811 58.2418 33.6317 58.4209 33.4104 58.4209C33.1891 58.4209 33.0107 58.2418 33.0107 58.0208Z" fill="#17171A"/>
<path d="M33.4287 57.3393V53.0348C33.4287 52.4377 33.9127 51.9535 34.51 51.9535C35.1071 51.9535 35.5913 52.438 35.5913 53.0348V57.3393C35.5913 57.9364 35.1069 58.4207 34.51 58.4207C33.9124 58.4207 33.4287 57.9362 33.4287 57.3393Z" fill="#17171A"/>
<path d="M32.2412 57.3503H79.1501V53.0241H32.2412V57.3503Z" fill="#17171A"/>
<path d="M78.3496 58.0208V52.3536C78.3496 52.1326 78.5287 51.9535 78.7493 51.9535C78.9705 51.9535 79.1499 52.1326 79.1499 52.3536V58.0208C79.1499 58.2418 78.9705 58.4209 78.7493 58.4209C78.5287 58.4209 78.3496 58.2418 78.3496 58.0208Z" fill="#17171A"/>
<path d="M78.7666 57.3393V53.0348C78.7666 52.4377 79.251 51.9535 79.8479 51.9535C80.4455 51.9535 80.9297 52.438 80.9297 53.0348V57.3393C80.9297 57.9364 80.4453 58.4207 79.8479 58.4207C79.2508 58.4207 78.7666 57.9362 78.7666 57.3393Z" fill="#17171A"/>
<path d="M81.6143 57.3503H119.987V53.0241H81.6143V57.3503Z" fill="#17171A"/>
<path d="M119.436 57.3503H136.531V51.9485H119.436V57.3503Z" fill="#17171A"/>
<path d="M124.544 43.6053H119.436V51.1268H136.531V43.6053H131.421V47.8845H132.476V49.2733H123.49V47.8845H124.544V43.6053Z" fill="#17171A"/>
</g>
<path d="M46.1873 63.0148V65.3849C45.1076 64.4105 43.916 63.9232 42.6125 63.9232C41.1904 63.9232 40.0352 64.3938 39.1466 65.3353C38.2577 66.2768 37.8133 67.4784 37.8133 68.9399C37.8133 70.3487 38.2675 71.5238 39.1759 72.4653C40.0845 73.4068 41.2366 73.8775 42.632 73.8775C43.9356 73.8775 45.1207 73.3706 46.1873 72.3567V74.7465C45.0814 75.4049 43.8765 75.734 42.573 75.734C40.7429 75.734 39.1892 75.1283 37.9119 73.917C36.5031 72.6004 35.7988 70.9415 35.7988 68.9401C35.7988 66.8334 36.5031 65.1153 37.9119 63.7853C39.1233 62.6399 40.71 62.0669 42.6716 62.0669C44.028 62.0669 45.1996 62.3832 46.1873 63.015V63.0148ZM54.0477 68.9399H51.6186V75.477H49.683V68.9399H47.2538V67.1624H54.0477V68.9399ZM57.3658 74.5093V80H55.4304V67.1624H57.3658V68.071C57.9979 67.3205 58.8208 66.9451 59.8347 66.9451C60.9672 66.9451 61.9249 67.3436 62.7082 68.1401C63.4916 68.9368 63.8834 69.98 63.8834 71.2704C63.8834 72.6001 63.4752 73.6764 62.6589 74.4996C61.8425 75.3225 60.9076 75.7338 59.8544 75.7338C58.867 75.7338 58.0374 75.3256 57.3658 74.5093ZM59.5977 68.6829C58.9394 68.6829 58.383 68.9165 57.9286 69.384C57.4744 69.8513 57.2474 70.513 57.2474 71.369C57.2474 72.1986 57.4744 72.8435 57.9286 73.3044C58.383 73.7653 58.9391 73.9956 59.5977 73.9956C60.2824 73.9956 60.8386 73.7388 61.2666 73.2253C61.6946 72.7121 61.9085 72.0866 61.9085 71.349C61.9085 70.5985 61.6943 69.9666 61.2666 69.4531C60.8386 68.9396 60.2824 68.6829 59.5977 68.6829ZM66.7372 68.1794C67.5865 67.3562 68.6431 66.9449 69.9071 66.9449C71.1711 66.9449 72.2276 67.3562 73.0769 68.1794C73.926 69.0023 74.3507 70.0521 74.3507 71.3295C74.3507 72.5935 73.926 73.6433 73.0769 74.4796C72.2276 75.3158 71.1711 75.7338 69.9071 75.7338C68.6431 75.7338 67.5865 75.3158 66.7372 74.4796C65.8881 73.6433 65.4634 72.5935 65.4634 71.3295C65.4634 70.0521 65.8881 69.0023 66.7372 68.1794ZM68.11 73.2746C68.5576 73.7553 69.1568 73.9956 69.9073 73.9956C70.6578 73.9956 71.257 73.7553 71.7046 73.2746C72.1523 72.7942 72.3762 72.1524 72.3762 71.349C72.3762 70.467 72.1359 69.802 71.6553 69.3545C71.1746 68.9067 70.5921 68.6829 69.9073 68.6829C69.2225 68.6829 68.6402 68.9067 68.1593 69.3545C67.6787 69.802 67.4384 70.467 67.4384 71.349C67.4384 72.1521 67.6623 72.7942 68.11 73.2746ZM76.3654 67.1621H78.3008V71.8825L83.9889 66.4116V75.477H82.0535V70.6383L76.3654 76.1089V67.1621ZM76.9975 63.5678L78.5776 63.1134C78.8276 63.9694 79.3676 64.3974 80.1972 64.3974C81.0134 64.3974 81.5533 63.9694 81.8167 63.1134L83.3968 63.5678C83.1862 64.3183 82.7616 64.8945 82.123 65.2958C81.4845 65.6974 80.8426 65.8981 80.1974 65.8981C79.5522 65.8981 78.9103 65.6974 78.2718 65.2958C77.633 64.8945 77.2085 64.3183 76.998 63.5678H76.9975ZM100.52 75.477L99.1375 72.2972H93.5087L92.0671 75.477H89.8944L96.4514 61.5333L102.692 75.477H100.52H100.52ZM94.3383 70.4013H98.3277L96.3723 65.9377L94.3383 70.4013ZM103.996 67.1621H105.931V70.1245L108.697 67.1621H111.264L107.63 70.7962L111.462 75.4768H109.013L106.248 72.0602L105.931 72.3762V75.477H103.996V67.1621ZM118.651 68.9396H116.222V75.4768H114.286V68.9396H111.857V67.1621H118.651V68.9396ZM120.033 67.1621H121.969V71.8825L127.657 66.4116V75.477H125.721V70.6383L120.033 76.1089V67.1621ZM130.106 67.1621H133.365C134.194 67.1621 134.826 67.3269 135.261 67.6561C135.774 68.0641 136.031 68.5976 136.031 69.2557C136.031 70.0064 135.702 70.5461 135.043 70.8753C135.465 70.9543 135.84 71.1387 136.169 71.4283C136.604 71.8232 136.821 72.3565 136.821 73.0281C136.821 73.8312 136.518 74.4631 135.913 74.924C135.412 75.2927 134.774 75.477 133.997 75.477H130.106V67.1621ZM132.041 70.4013H133.029C133.371 70.4013 133.628 70.342 133.799 70.2236C134.049 70.0655 134.174 69.8416 134.174 69.552C134.174 69.2754 134.062 69.0582 133.839 68.9001C133.68 68.7948 133.397 68.7422 132.989 68.7422H132.041V70.4011L132.041 70.4013ZM132.041 73.897H133.483C133.918 73.897 134.253 73.8179 134.49 73.6598C134.754 73.4887 134.885 73.2451 134.885 72.9293C134.885 72.5868 134.76 72.3434 134.51 72.1986C134.286 72.0538 133.964 71.9813 133.542 71.9813H132.041V73.8972L132.041 73.897Z" fill="#3B4658"/>
</svg>
